<svg width="170" height="205" xmlns="http://www.w3.org/2000/svg">
 <style type="text/css">.st0{fill:#FCFAE0;}
	.st1{fill:none;stroke:#3B4252;stroke-width:2;stroke-miterlimit:10;}
	.st2{fill:none;stroke:#3B4252;stroke-miterlimit:10;}
	.st3{fill:#CE5E4F;}
	.st4{fill:none;stroke:#3B4252;stroke-width:4;stroke-miterlimit:10;}
	.st5{opacity:0.4;}
	.st6{fill:#585F65;}
	.st7{opacity:0.2;}
	.st8{opacity:0.1;}
	.st9{fill:#3B4252;}
	.st10{fill:#DCE8C7;}</style>

 <g>
  <title>background</title>
  <rect fill="none" id="canvas_background" height="207" width="172" y="-1" x="-1"/>
 </g>
 <g>
  <title>Layer 1</title>
  <g stroke="null" id="svg_1">
   <g stroke="null" id="svg_2">
    <circle stroke="null" id="svg_3" r="37.953136" cy="120.846881" cx="85.371818" class="st0"/>
    <g stroke="null" id="svg_4">
     <polyline stroke="null" id="svg_5" points="96.7194199111118,108.11917004350228 84.68174938661559,120.15681716925549 93.34581254461864,128.82088032725855 " class="st1"/>
    </g>
    <g stroke="null" id="svg_6">
     <line stroke="null" id="svg_7" y2="94.854734" x2="84.681761" y1="85.193936" x1="84.681761" class="st2"/>
     <line stroke="null" id="svg_8" y2="155.119713" x2="84.681761" y1="145.458915" x1="84.681761" class="st2"/>
     <g stroke="null" id="svg_9">
      <line stroke="null" id="svg_10" y2="120.156824" x2="109.983851" y1="120.156824" x1="119.64465" class="st2"/>
      <line stroke="null" id="svg_11" y2="120.156824" x2="49.718873" y1="120.156824" x1="59.379671" class="st2"/>
     </g>
    </g>
    <g stroke="null" id="svg_12">
     <line stroke="null" id="svg_13" y2="102.215342" x2="102.54657" y1="95.468118" x1="109.370467" class="st2"/>
     <line stroke="null" id="svg_14" y2="144.845531" x2="59.993055" y1="138.021633" x1="66.816952" class="st2"/>
     <g stroke="null" id="svg_15">
      <line stroke="null" id="svg_16" y2="138.021633" x2="102.54657" y1="144.845531" x1="109.370467" class="st2"/>
      <line stroke="null" id="svg_17" y2="95.468118" x2="59.993055" y1="102.215342" x1="66.816952" class="st2"/>
     </g>
    </g>
    <path stroke="null" id="svg_18" d="m85.448491,164.627165c-24.075322,0 -43.703611,-19.628288 -43.703611,-43.703611s19.628288,-43.703611 43.703611,-43.703611s43.703611,19.628288 43.703611,43.703611s-19.628288,43.703611 -43.703611,43.703611zm0,-84.340301c-22.388516,0 -40.636691,18.248174 -40.636691,40.636691s18.248174,40.636691 40.636691,40.636691s40.636691,-18.248174 40.636691,-40.636691s-18.248174,-40.636691 -40.636691,-40.636691z" class="st3"/>
    <path stroke="null" id="svg_19" d="m108.373718,76.299868c1.380114,0.76673 2.760228,1.610133 4.140342,2.530209c1.303441,0.920076 2.606882,1.840152 3.83365,2.836901c1.226768,0.996749 2.376863,2.070171 3.526958,3.220266c1.150095,1.150095 2.223517,2.30019 3.220266,3.526958c0.996749,1.226768 1.993498,2.530209 2.836901,3.83365c0.920076,1.303441 1.763479,2.683555 2.530209,4.140342" class="st4"/>
    <path stroke="null" id="svg_20" d="m40.824804,96.388194c0.76673,-1.380114 1.610133,-2.760228 2.530209,-4.140342c0.920076,-1.303441 1.840152,-2.606882 2.836901,-3.83365c0.996749,-1.226768 2.070171,-2.376863 3.220266,-3.526958c1.150095,-1.150095 2.30019,-2.223517 3.526958,-3.220266s2.530209,-1.993498 3.83365,-2.836901c1.303441,-0.920076 2.683555,-1.763479 4.140342,-2.530209" class="st4"/>
    <path stroke="null" id="svg_21" d="m84.681761,165.393895c-24.918725,0 -45.237071,-20.318345 -45.237071,-45.237071s20.318345,-45.237071 45.237071,-45.237071s45.237071,20.318345 45.237071,45.237071s-20.318345,45.237071 -45.237071,45.237071zm0,-84.340301c-21.545113,0 -39.103231,17.558117 -39.103231,39.103231s17.558117,39.103231 39.103231,39.103231s39.103231,-17.558117 39.103231,-39.103231s-17.558117,-39.103231 -39.103231,-39.103231z" class="st1"/>
    <g stroke="null" id="svg_22" class="st5">
     <path stroke="null" id="svg_23" d="m84.681761,58.818423c33.812793,0 61.338401,27.525607 61.338401,61.338401s-27.525607,61.338401 -61.338401,61.338401s-61.338401,-27.525607 -61.338401,-61.338401s27.525607,-61.338401 61.338401,-61.338401m0,-0.76673c-34.272831,0 -62.105131,27.832299 -62.105131,62.105131s27.832299,62.105131 62.105131,62.105131s62.105131,-27.832299 62.105131,-62.105131s-27.832299,-62.105131 -62.105131,-62.105131l0,0z" class="st6"/>
    </g>
    <g stroke="null" id="svg_24" class="st7">
     <path stroke="null" id="svg_25" d="m84.681761,47.317473c40.176653,0 72.839351,32.662698 72.839351,72.839351s-32.662698,72.839351 -72.839351,72.839351s-72.839351,-32.662698 -72.839351,-72.839351s32.662698,-72.839351 72.839351,-72.839351m0,-0.76673c-40.560018,0 -73.606081,33.046063 -73.606081,73.606081s33.046063,73.606081 73.606081,73.606081s73.606081,-33.046063 73.606081,-73.606081s-33.046063,-73.606081 -73.606081,-73.606081l0,0z" class="st6"/>
    </g>
    <g stroke="null" id="svg_26" class="st8">
     <path stroke="null" id="svg_27" d="m84.681761,35.816523c46.540512,0 84.340301,37.79979 84.340301,84.340301s-37.79979,84.340301 -84.340301,84.340301s-84.340301,-37.79979 -84.340301,-84.340301s37.79979,-84.340301 84.340301,-84.340301m0,-0.76673c-46.923877,0 -85.107031,38.183155 -85.107031,85.107031s38.183155,85.107031 85.107031,85.107031s85.107031,-38.183155 85.107031,-85.107031s-38.183155,-85.107031 -85.107031,-85.107031l0,0z" class="st6"/>
    </g>
   </g>
   <polygon stroke="null" id="svg_28" points="19.509701418151735,33.74635609923878 22.5766214601897,33.74635609923878 21.043161439170717,28.609255669327997 " class="st9"/>
   <polygon stroke="null" id="svg_29" points="142.95323603502266,42.717094882325526 149.08707611909858,42.717094882325526 146.02015607706062,32.44290572187545 " class="st10"/>
   <polygon stroke="null" id="svg_30" points="60.91311906082137,8.597609414653181 65.51349912387832,8.597609414653181 63.213309092349846,0.9303093552589417 " class="st3"/>
  </g>
 </g>
</svg>