<?xml version="1.0" encoding="UTF-8" standalone="no"?>
<svg
   xmlns:dc="http://purl.org/dc/elements/1.1/"
   xmlns:cc="http://creativecommons.org/ns#"
   xmlns:rdf="http://www.w3.org/1999/02/22-rdf-syntax-ns#"
   xmlns:svg="http://www.w3.org/2000/svg"
   xmlns="http://www.w3.org/2000/svg"
   xmlns:sodipodi="http://sodipodi.sourceforge.net/DTD/sodipodi-0.dtd"
   xmlns:inkscape="http://www.inkscape.org/namespaces/inkscape"
   width="170"
   height="205"
   version="1.1"
   id="svg1172"
   sodipodi:docname="adv3.svg"
   inkscape:version="0.92.3 (2405546, 2018-03-11)">
  <metadata
     id="metadata1178">
    <rdf:RDF>
      <cc:Work
         rdf:about="">
        <dc:format>image/svg+xml</dc:format>
        <dc:type
           rdf:resource="http://purl.org/dc/dcmitype/StillImage" />
      </cc:Work>
    </rdf:RDF>
  </metadata>
  <defs
     id="defs1176" />
  <sodipodi:namedview
     pagecolor="#ffffff"
     bordercolor="#666666"
     borderopacity="1"
     objecttolerance="10"
     gridtolerance="10"
     guidetolerance="10"
     inkscape:pageopacity="0"
     inkscape:pageshadow="2"
     inkscape:window-width="1536"
     inkscape:window-height="801"
     id="namedview1174"
     showgrid="false"
     inkscape:zoom="1.1512195"
     inkscape:cx="-60.836864"
     inkscape:cy="102.5"
     inkscape:window-x="-8"
     inkscape:window-y="-8"
     inkscape:window-maximized="1"
     inkscape:current-layer="svg1172" />
  <style
     type="text/css"
     id="style1127">.st0{fill:#F6F5F6;stroke:#3B4252;stroke-width:2;stroke-miterlimit:10;}
	.st1{fill:#DCE8C7;}
	.st2{fill:#3B4252;}
	.st3{fill:#DCE8C7;stroke:#3B4252;stroke-width:2;stroke-miterlimit:10;}
	.st4{fill:#F6F5F6;}
	.st5{fill:#FCFAE0;}
	.st6{fill:none;stroke:#3B4252;stroke-width:2;stroke-miterlimit:10;}
	.st7{fill:#CCE5F5;}
	.st8{fill:#CE5E4F;}
	.st9{fill:#DDDFE1;}
	.st10{fill:#F6F5F6;stroke:#3B4252;stroke-width:4;stroke-miterlimit:10;}</style>
  <g
     id="g1132">
    <title
       id="title1129">background</title>
    <rect
       id="canvas_background"
       height="207"
       width="147"
       y="-1"
       x="-1"
       style="fill:none" />
  </g>
  <g
     id="g1170"
     transform="translate(12.486022,16.92133)">
    <title
       id="title1134">Layer 1</title>
    <g
       stroke="null"
       id="svg_1">
      <g
         stroke="null"
         id="svg_2">
        <path
           id="svg_3"
           d="M 113.2431,110.7507 H 32.16729 c -0.841353,0 -1.529732,-0.68837 -1.529732,-1.52973 V 66.388471 c 0,-0.841353 0.68838,-1.529732 1.529732,-1.529732 h 81.07581 c 0.84135,0 1.52973,0.68838 1.52973,1.529732 v 42.832499 c 0,0.91784 -0.68838,1.52974 -1.52973,1.52973 z"
           class="st0"
           inkscape:connector-curvature="0"
           style="fill:#f6f5f6;stroke:#3b4252;stroke-width:2;stroke-miterlimit:10" />
        <path
           stroke="null"
           id="svg_4"
           d="M 33.697022,109.98584 V 67.918203 h 80.310938 v 41.302767 c 0,0.45892 -0.30594,0.76487 -0.76486,0.76487 z"
           class="st1"
           inkscape:connector-curvature="0"
           style="fill:#dce8c7" />
        <g
           stroke="null"
           id="svg_5">
          <path
             stroke="null"
             id="svg_6"
             d="m 41.65163,106.62043 c -0.22946,-3.28893 -2.830005,-5.88947 -6.118929,-6.11893 V 76.025783 c 3.288924,-0.22946 5.889469,-2.830005 6.118929,-6.118929 h 61.95415 c 0.22947,3.288924 2.83001,5.889469 6.11893,6.118929 V 100.5015 c -3.28892,0.22946 -5.88947,2.83 -6.11893,6.11893 z"
             class="st1"
             inkscape:connector-curvature="0"
             style="fill:#dce8c7" />
          <path
             stroke="null"
             id="svg_7"
             d="m 103.29984,70.289288 c 0.38243,3.212438 2.90649,5.736496 6.04244,6.042442 v 23.78734 c -3.21244,0.38243 -5.7365,2.90649 -6.04244,6.04244 H 42.034063 c -0.382433,-3.21244 -2.906491,-5.7365 -6.042442,-6.04244 V 76.33173 c 3.212438,-0.382433 5.736496,-2.906491 6.042442,-6.042442 h 61.265777 m 0.76487,-0.764866 H 41.345684 c 0,3.365411 -2.753518,6.118929 -6.118929,6.118929 v 25.240579 c 3.365411,0 6.118929,2.75352 6.118929,6.11893 h 62.719026 c 0,-3.36541 2.75351,-6.11893 6.11892,-6.11893 V 75.643351 c -3.44189,0 -6.11892,-2.753518 -6.11892,-6.118929 z"
             class="st2"
             inkscape:connector-curvature="0"
             style="fill:#3b4252" />
        </g>
        <ellipse
           id="svg_8"
           ry="14.532456"
           rx="12.237858"
           cy="87.804726"
           cx="72.705193"
           class="st3"
           style="fill:#dce8c7;stroke:#3b4252;stroke-width:2;stroke-miterlimit:10" />
        <g
           stroke="null"
           id="svg_9">
          <ellipse
             stroke="null"
             id="svg_10"
             ry="10.325693"
             rx="8.0310936"
             cy="87.804726"
             cx="72.705193"
             class="st1"
             style="fill:#dce8c7" />
          <path
             stroke="null"
             id="svg_11"
             d="m 72.705194,77.861462 c 4.206764,0 7.648661,4.436223 7.648661,9.943259 0,5.507036 -3.441898,9.943259 -7.648661,9.943259 -4.206763,0 -7.648661,-4.436223 -7.648661,-9.943259 0,-5.507036 3.365411,-9.943259 7.648661,-9.943259 m 0,-0.764866 c -4.665683,0 -8.413527,4.818657 -8.413527,10.708126 0,5.889469 3.747844,10.708126 8.413527,10.708126 4.665683,0 8.413527,-4.818657 8.413527,-10.708126 0,-5.889469 -3.824331,-10.708126 -8.413527,-10.708126 z"
             class="st2"
             inkscape:connector-curvature="0"
             style="fill:#3b4252" />
        </g>
        <line
           id="svg_12"
           y2="96.983116"
           x2="101.7701"
           y1="96.983116"
           x1="94.121445"
           class="st3"
           style="fill:#dce8c7;stroke:#3b4252;stroke-width:2;stroke-miterlimit:10" />
        <line
           id="svg_13"
           y2="78.626328"
           x2="51.288944"
           y1="78.626328"
           x1="43.640282"
           class="st3"
           style="fill:#dce8c7;stroke:#3b4252;stroke-width:2;stroke-miterlimit:10" />
      </g>
      <g
         stroke="null"
         id="svg_14">
        <path
           stroke="null"
           id="svg_15"
           d="m 5.396976,140.65697 c -2.982978,0 -5.354063,-2.37109 -5.354063,-5.35406 V 92.470405 c 0,-2.982978 2.371085,-5.354063 5.354063,-5.354063 h 81.075808 c 2.982978,0 5.354063,2.371085 5.354063,5.354063 v 42.832505 c 0,2.98297 -2.371085,5.35406 -5.354063,5.35406 z"
           class="st4"
           inkscape:connector-curvature="0"
           style="fill:#f6f5f6" />
        <path
           id="svg_16"
           d="M 86.472784,136.75615 H 5.396976 c -0.841353,0 -1.529732,-0.68838 -1.529732,-1.52973 V 92.393919 c 0,-0.841353 0.68838,-1.529732 1.529732,-1.529732 h 81.075808 c 0.841353,0 1.529732,0.68838 1.529732,1.529732 v 42.832501 c 0,0.91784 -0.68838,1.52973 -1.529732,1.52973 z"
           class="st0"
           inkscape:connector-curvature="0"
           style="fill:#f6f5f6;stroke:#3b4252;stroke-width:2;stroke-miterlimit:10" />
        <path
           stroke="null"
           id="svg_17"
           d="M 6.926708,136.06777 V 94.000138 H 87.23765 v 41.302772 c 0,0.45892 -0.305946,0.76486 -0.764866,0.76486 z"
           class="st5"
           inkscape:connector-curvature="0"
           style="fill:#fcfae0" />
        <line
           id="svg_18"
           y2="133.69669"
           x2="65.056534"
           y1="94.000137"
           x1="65.056534"
           class="st6"
           style="fill:none;stroke:#3b4252;stroke-width:2;stroke-miterlimit:10" />
        <line
           id="svg_19"
           y2="98.589333"
           x2="72.705193"
           y1="98.589333"
           x1="80.353851"
           class="st6"
           style="fill:none;stroke:#3b4252;stroke-width:2;stroke-miterlimit:10" />
        <path
           id="svg_20"
           d="m 46.16434,125.58911 c 3.212438,-3.21244 3.671357,-8.0311 1.453246,-11.70245 2.218112,-3.67136 1.759192,-8.5665 -1.453246,-11.70246 -3.212438,-3.212434 -8.031094,-3.671353 -11.702452,-1.45324 -3.671357,-2.218114 -8.5665,-1.759194 -11.702452,1.45324 -3.212438,3.21244 -3.671357,8.0311 -1.453246,11.70246 -2.218112,3.67135 -1.759192,8.5665 1.453246,11.70245 3.212438,3.21244 8.031094,3.67135 11.702452,1.45324 3.671357,2.21812 8.490014,1.68271 11.702452,-1.45324 z"
           class="st6"
           inkscape:connector-curvature="0"
           style="fill:none;stroke:#3b4252;stroke-width:2;stroke-miterlimit:10" />
        <g
           stroke="null"
           id="svg_21">
          <path
             stroke="null"
             id="svg_22"
             d="m 39.357032,103.9434 c 1.300272,0 2.600545,0.5354 3.518384,1.45324 1.606219,1.60622 1.912165,4.13028 0.764866,6.11893 l -1.376759,2.37109 1.376759,2.37108 c 1.147299,1.98865 0.841353,4.51271 -0.764866,6.11893 -0.917839,0.91784 -2.218112,1.45325 -3.518384,1.45325 -0.917839,0 -1.835679,-0.22946 -2.600545,-0.68838 l -2.371085,-1.37676 -2.371085,1.37676 c -0.764866,0.45892 -1.682705,0.68838 -2.600545,0.68838 -1.300272,0 -2.600545,-0.53541 -3.518384,-1.45325 -1.606219,-1.60622 -1.912165,-4.13028 -0.764866,-6.11893 l 1.376759,-2.37108 -1.376759,-2.37109 c -1.147299,-1.98865 -0.841353,-4.51271 0.764866,-6.11893 0.917839,-0.91784 2.218112,-1.45324 3.518384,-1.45324 0.917839,0 1.835679,0.22946 2.600545,0.68838 l 2.371085,1.37676 2.371085,-1.37676 c 0.841353,-0.45892 1.682705,-0.68838 2.600545,-0.68838 m 0,-0.76487 c -1.070813,0 -2.065139,0.30595 -2.982978,0.84135 l -1.988652,1.1473 -1.988652,-1.1473 c -0.917839,-0.5354 -1.912165,-0.84135 -2.982978,-0.84135 -1.529732,0 -2.982978,0.61189 -4.05379,1.68271 -1.912165,1.91216 -2.218112,4.74217 -0.841353,7.03676 l 1.147299,1.98866 -1.147299,1.98865 c -1.376759,2.2946 -0.994326,5.20109 0.841353,7.03677 1.070813,1.07081 2.524058,1.6827 4.05379,1.6827 1.070813,0 2.065139,-0.30595 2.982978,-0.84135 l 1.988652,-1.1473 1.988652,1.1473 c 0.917839,0.5354 1.912165,0.84135 2.982978,0.84135 1.529732,0 2.982978,-0.61189 4.05379,-1.6827 1.912165,-1.91217 2.218112,-4.74217 0.841353,-7.03677 l -1.147299,-1.98865 1.147299,-1.98866 c 1.376759,-2.29459 0.994326,-5.20109 -0.841353,-7.03676 -1.070813,-1.1473 -2.524058,-1.68271 -4.05379,-1.68271 z"
             class="st2"
             inkscape:connector-curvature="0"
             style="fill:#3b4252" />
        </g>
      </g>
      <path
         stroke="null"
         id="svg_23"
         d="m 10.751039,188.07867 v -70.36768 h 3.059464 v -0.76487 c 0,-2.98298 2.371085,-5.35406 5.354063,-5.35406 h 76.486611 c 2.982978,0 5.354063,2.37108 5.354063,5.35406 v 3.9773 c 1.98865,1.98866 3.05946,4.66569 3.05946,7.49569 v 12.46732 c 2.60055,0.68838 4.5892,3.05946 4.5892,5.88947 v 12.23786 c 0,2.83 -1.98865,5.27757 -4.5892,5.88947 v 12.46731 c 0,5.88947 -4.818653,10.70813 -10.708122,10.70813 h -82.60554 z"
         class="st4"
         inkscape:connector-curvature="0"
         style="fill:#f6f5f6" />
      <ellipse
         stroke="null"
         id="svg_24"
         ry="5.354063"
         rx="3.824331"
         cy="24.397322"
         cx="80.124397"
         class="st7"
         style="fill:#cce5f5" />
      <ellipse
         stroke="null"
         id="svg_25"
         ry="3.2124381"
         rx="2.2945981"
         cy="39.31221"
         cx="35.609188"
         class="st8"
         style="fill:#ce5e4f" />
      <ellipse
         stroke="null"
         id="svg_26"
         ry="3.2124381"
         rx="2.2945981"
         cy="73.348755"
         cx="142.69044"
         class="st9"
         style="fill:#dddfe1" />
      <g
         stroke="null"
         id="svg_27">
        <path
           id="svg_28"
           d="M 97.18091,176.60568 H 17.634834 v -59.65956 c 0,-0.84135 0.68838,-1.52973 1.529732,-1.52973 h 76.486611 c 0.841353,0 1.529732,0.68838 1.529732,1.52973 v 59.65956 z"
           class="st3"
           inkscape:connector-curvature="0"
           style="fill:#dce8c7;stroke:#3b4252;stroke-width:2;stroke-miterlimit:10" />
        <path
           id="svg_29"
           d="M 93.356579,183.48947 H 15.340235 v -61.18929 h 78.016344 c 3.365411,0 6.118929,2.75352 6.118929,6.11893 v 48.95143 c 0,3.36541 -2.753518,6.11893 -6.118929,6.11893 z"
           class="st10"
           inkscape:connector-curvature="0"
           style="fill:#f6f5f6;stroke:#3b4252;stroke-width:4;stroke-miterlimit:10" />
        <path
           stroke="null"
           id="svg_30"
           d="m 24.518629,181.95974 v -55.07036 h 70.367682 c 1.682705,0 3.059464,1.37676 3.059464,3.05946 v 47.4217 c 0,2.52406 -2.065139,4.5892 -4.589197,4.5892 z"
           class="st7"
           inkscape:connector-curvature="0"
           style="fill:#cce5f5" />
        <g
           stroke="null"
           id="svg_31">
          <path
             id="svg_32"
             d="M 102.53497,160.54349 H 82.648454 c -4.206764,0 -7.648661,-3.4419 -7.648661,-7.64866 v 0 c 0,-4.20677 3.441898,-7.64866 7.648661,-7.64866 h 19.886516 c 0.84136,0 1.52973,0.68838 1.52973,1.52973 v 12.23786 c 0,0.84135 -0.68838,1.52973 -1.52973,1.52973 z"
             class="st10"
             inkscape:connector-curvature="0"
             style="fill:#f6f5f6;stroke:#3b4252;stroke-width:4;stroke-miterlimit:10" />
          <path
             stroke="null"
             id="svg_33"
             d="m 84.178186,159.01376 c -2.753518,0 -4.895143,-2.37109 -4.51271,-5.20109 0.305946,-2.2946 2.371085,-3.97731 4.74217,-3.97731 h 18.203814 v 9.1784 z"
             class="st7"
             inkscape:connector-curvature="0"
             style="fill:#cce5f5" />
          <circle
             stroke="null"
             id="svg_34"
             r="2.2945981"
             cy="152.89482"
             cx="82.648453"
             class="st2"
             style="fill:#3b4252" />
        </g>
      </g>
    </g>
  </g>
</svg>
