<?xml version="1.0" encoding="UTF-8" standalone="no"?>
<svg
   xmlns:dc="http://purl.org/dc/elements/1.1/"
   xmlns:cc="http://creativecommons.org/ns#"
   xmlns:rdf="http://www.w3.org/1999/02/22-rdf-syntax-ns#"
   xmlns:svg="http://www.w3.org/2000/svg"
   xmlns="http://www.w3.org/2000/svg"
   xmlns:sodipodi="http://sodipodi.sourceforge.net/DTD/sodipodi-0.dtd"
   xmlns:inkscape="http://www.inkscape.org/namespaces/inkscape"
   width="170"
   height="205"
   version="1.1"
   id="svg1517"
   sodipodi:docname="adv4.svg"
   inkscape:version="0.92.3 (2405546, 2018-03-11)">
  <metadata
     id="metadata1523">
    <rdf:RDF>
      <cc:Work
         rdf:about="">
        <dc:format>image/svg+xml</dc:format>
        <dc:type
           rdf:resource="http://purl.org/dc/dcmitype/StillImage" />
      </cc:Work>
    </rdf:RDF>
  </metadata>
  <defs
     id="defs1521" />
  <sodipodi:namedview
     pagecolor="#ffffff"
     bordercolor="#666666"
     borderopacity="1"
     objecttolerance="10"
     gridtolerance="10"
     guidetolerance="10"
     inkscape:pageopacity="0"
     inkscape:pageshadow="2"
     inkscape:window-width="1536"
     inkscape:window-height="801"
     id="namedview1519"
     showgrid="false"
     inkscape:zoom="1.1512195"
     inkscape:cx="-87.961864"
     inkscape:cy="102.5"
     inkscape:window-x="-8"
     inkscape:window-y="-8"
     inkscape:window-maximized="1"
     inkscape:current-layer="svg1517" />
  <style
     type="text/css"
     id="style1453">.st0{fill:#F6F5F6;}
	.st1{fill:#CCE5F5;}
	.st2{fill:none;stroke:#585F65;stroke-width:2;stroke-miterlimit:10;}
	.st3{fill:none;stroke:#3B4252;stroke-width:2;stroke-miterlimit:10;}
	.st4{opacity:0.99;fill:none;stroke:#3B4252;stroke-width:2;stroke-miterlimit:10;}
	.st5{opacity:0.99;fill:none;stroke:#585F65;stroke-width:2;stroke-miterlimit:10;}
	.st6{fill:#DCE8C7;}
	.st7{fill:#FCFAE0;}
	.st8{fill:none;stroke:#3B4252;stroke-width:4;stroke-miterlimit:10;}
	.st9{fill:#CE5E4F;}
	.st10{fill:#3B4252;}</style>
  <g
     id="g1458">
    <title
       id="title1455">background</title>
    <rect
       id="canvas_background"
       height="207"
       width="144"
       y="-1"
       x="-1"
       style="fill:none" />
  </g>
  <g
     id="g1515"
     transform="translate(13.503925,23.52364)">
    <title
       id="title1460">Layer 1</title>
    <g
       stroke="null"
       id="svg_1">
      <g
         stroke="null"
         id="svg_2">
        <path
           stroke="null"
           id="svg_3"
           d="m 122.18468,71.54745 c -2.21693,-1.452468 -3.36361,-4.663188 -2.59915,-7.185896 0.76445,-2.522708 -0.38223,-5.733427 -2.59916,-7.185896 L 40.081998,85.154784 c -0.382228,2.064034 -1.834697,3.898731 -3.898731,4.663188 -2.14048,0.764457 -4.433851,0.305783 -6.03921,-1.07024 L 6.369445,97.386096 c -0.764457,2.522708 0.382228,5.733424 2.599154,7.185894 2.216925,1.45247 3.363611,4.66319 2.599154,7.1859 -0.764457,2.52271 0.382228,5.73343 2.599154,7.18589 2.216925,1.45247 3.363611,4.66319 2.599154,7.1859 -0.764457,2.52271 0.382228,5.73343 2.599154,7.1859 2.216925,1.45246 3.363611,4.66318 2.599154,7.18589 -0.764457,2.52271 0.382228,5.73343 2.599154,7.1859 2.216925,1.45247 3.363611,4.66319 2.599154,7.18589 -0.764457,2.52271 0.382228,5.73343 2.599154,7.1859 l 23.774612,-8.63836 c 0.382228,-2.06404 1.834697,-3.89873 3.898731,-4.66319 2.14048,-0.76446 4.433851,-0.30578 6.03921,1.07024 l 76.904376,-27.97913 c 0.76445,-2.52271 -0.38223,-5.73342 -2.59916,-7.18589 -2.21692,-1.45247 -3.36361,-4.66319 -2.59915,-7.1859 0.76446,-2.52271 -0.38223,-5.73343 -2.59916,-7.1859 -2.21692,-1.452464 -3.36361,-4.663184 -2.59915,-7.185892 0.76446,-2.522708 -0.38223,-5.733427 -2.59915,-7.185896 -2.21693,-1.452468 -3.36361,-4.663188 -2.59916,-7.185896 0.76446,-2.522708 -0.38222,-5.733427 -2.59915,-7.185896 z"
           class="st0"
           inkscape:connector-curvature="0"
           style="fill:#f6f5f6" />
        <path
           stroke="null"
           id="svg_4"
           d="m 66.226428,148.83405 c -1.987588,-1.29958 -4.510296,-1.60536 -6.803667,-0.76446 -2.293371,0.84091 -3.975176,2.6756 -4.663188,4.96897 l -22.169253,8.10325 c -1.299577,-1.22313 -1.911142,-3.36361 -1.452468,-5.04542 0.993794,-3.21072 -0.458674,-7.10945 -3.210719,-8.94414 -1.681805,-1.07025 -2.522708,-3.59295 -1.987588,-5.42765 0.993794,-3.21072 -0.458674,-7.10945 -3.210719,-8.94415 -1.681805,-1.07024 -2.522708,-3.59294 -1.987588,-5.42764 0.993794,-3.21072 -0.458674,-7.10945 -3.210719,-8.94415 -1.681805,-1.07024 -2.522708,-3.59295 -1.987588,-5.42764 0.993794,-3.21072 -0.458674,-7.10945 -3.210719,-8.94415 -1.452468,-0.91735 -2.293371,-2.98138 -2.14048,-4.739634 l 22.169253,-8.103244 c 1.987588,1.299577 4.510296,1.60536 6.803667,0.764457 2.293371,-0.840903 3.975176,-2.675599 4.663188,-4.96897 L 119.2033,59.545473 c 1.29958,1.223131 1.91114,3.363611 1.45247,5.045416 -0.9938,3.210719 0.45867,7.10945 3.21072,8.944147 1.6818,1.07024 2.5227,3.592948 1.98758,5.427645 -0.99379,3.210719 0.45868,7.10945 3.21072,8.944147 1.68181,1.07024 2.52271,3.592948 1.98759,5.427645 -0.99379,3.210719 0.45867,7.109447 3.21072,8.944147 1.6818,1.07024 2.52271,3.59295 1.98759,5.42765 -0.9938,3.21071 0.45867,7.10945 3.21072,8.94414 1.45247,0.91735 2.29337,2.98138 2.14048,4.73964 z"
           class="st1"
           inkscape:connector-curvature="0"
           style="fill:#cce5f5" />
        <g
           stroke="null"
           id="svg_5">
          <g
             stroke="null"
             id="svg_6">
            <path
               id="svg_7"
               d="m 79.451533,108.24138 v 0 c -3.210719,1.14669 -6.650776,-0.45867 -7.873907,-3.66939 l -2.064034,-5.733426 c -1.146685,-3.210719 0.458674,-6.650776 3.669394,-7.873907 v 0 c 3.210719,-1.146685 6.650776,0.458674 7.873907,3.669394 l 2.064034,5.733429 c 1.146685,3.21072 -0.53512,6.72722 -3.669394,7.8739 z"
               class="st2"
               inkscape:connector-curvature="0"
               style="fill:none;stroke:#585f65;stroke-width:2;stroke-miterlimit:10" />
            <path
               id="svg_8"
               d="m 108.88313,115.42728 v 0 c -3.21072,1.14669 -6.65078,-0.45867 -7.87391,-3.66939 l -2.064034,-5.73343 c -1.146685,-3.21072 0.458674,-6.650776 3.669394,-7.873907 v 0 c 3.21072,-1.146685 6.65078,0.458674 7.87391,3.669397 l 2.06403,5.73342 c 1.14669,3.21072 -0.45867,6.72722 -3.66939,7.87391 z"
               class="st2"
               inkscape:connector-curvature="0"
               style="fill:none;stroke:#585f65;stroke-width:2;stroke-miterlimit:10" />
          </g>
          <line
             id="svg_9"
             y2="124.14209"
             x2="87.325439"
             y1="82.326294"
             x1="94.740669"
             class="st3"
             style="fill:none;stroke:#3b4252;stroke-width:2;stroke-miterlimit:10" />
        </g>
        <g
           stroke="null"
           id="svg_10">
          <line
             id="svg_11"
             y2="97.003868"
             x2="38.782421"
             y1="90.582428"
             x1="36.412605"
             class="st4"
             style="opacity:0.98999999;fill:none;stroke:#3b4252;stroke-width:2;stroke-miterlimit:10" />
          <line
             id="svg_12"
             y2="107.0947"
             x2="42.37537"
             y1="101.36127"
             x1="40.311337"
             class="st5"
             style="opacity:0.98999999;fill:none;stroke:#585f65;stroke-width:2;stroke-miterlimit:10" />
          <line
             id="svg_13"
             y2="117.10909"
             x2="46.044762"
             y1="111.37566"
             x1="43.980728"
             class="st5"
             style="opacity:0.98999999;fill:none;stroke:#585f65;stroke-width:2;stroke-miterlimit:10" />
          <line
             id="svg_14"
             y2="127.19992"
             x2="49.714157"
             y1="121.46649"
             x1="47.650124"
             class="st5"
             style="opacity:0.98999999;fill:none;stroke:#585f65;stroke-width:2;stroke-miterlimit:10" />
          <line
             id="svg_15"
             y2="137.21431"
             x2="53.383549"
             y1="131.48088"
             x1="51.319515"
             class="st5"
             style="opacity:0.98999999;fill:none;stroke:#585f65;stroke-width:2;stroke-miterlimit:10" />
          <line
             id="svg_16"
             y2="147.99315"
             x2="57.28228"
             y1="141.57172"
             x1="54.988911"
             class="st5"
             style="opacity:0.98999999;fill:none;stroke:#585f65;stroke-width:2;stroke-miterlimit:10" />
        </g>
        <path
           id="svg_17"
           d="m 122.18468,71.54745 c -2.21693,-1.452468 -3.36361,-4.663188 -2.59915,-7.185896 0.76445,-2.522708 -0.38223,-5.733427 -2.59916,-7.185896 L 40.081998,85.154784 c -0.382228,2.064034 -1.834697,3.898731 -3.898731,4.663188 -2.14048,0.764457 -4.433851,0.305783 -6.03921,-1.07024 L 6.369445,97.386096 c -0.764457,2.522708 0.382228,5.733424 2.599154,7.185894 2.216925,1.45247 3.363611,4.66319 2.599154,7.1859 -0.764457,2.52271 0.382228,5.73343 2.599154,7.18589 2.216925,1.45247 3.363611,4.66319 2.599154,7.1859 -0.764457,2.52271 0.382228,5.73343 2.599154,7.1859 2.216925,1.45246 3.363611,4.66318 2.599154,7.18589 -0.764457,2.52271 0.382228,5.73343 2.599154,7.1859 2.216925,1.45247 3.363611,4.66319 2.599154,7.18589 -0.764457,2.52271 0.382228,5.73343 2.599154,7.1859 l 23.774612,-8.63836 c 0.382228,-2.06404 1.834697,-3.89873 3.898731,-4.66319 2.14048,-0.76446 4.433851,-0.30578 6.03921,1.07024 l 76.904376,-27.97913 c 0.76445,-2.52271 -0.38223,-5.73342 -2.59916,-7.18589 -2.21692,-1.45247 -3.36361,-4.66319 -2.59915,-7.1859 0.76446,-2.52271 -0.38223,-5.73343 -2.59916,-7.1859 -2.21692,-1.452464 -3.36361,-4.663184 -2.59915,-7.185892 0.76446,-2.522708 -0.38223,-5.733427 -2.59915,-7.185896 -2.21693,-1.452468 -3.36361,-4.663188 -2.59916,-7.185896 0.76446,-2.522708 -0.38222,-5.733427 -2.59915,-7.185896 z"
           class="st3"
           inkscape:connector-curvature="0"
           style="fill:none;stroke:#3b4252;stroke-width:2;stroke-miterlimit:10" />
      </g>
      <g
         stroke="null"
         id="svg_18">
        <path
           stroke="null"
           id="svg_19"
           d="m 124.93672,96.621639 c -1.91114,-1.834697 -2.5227,-5.198308 -1.29957,-7.491678 1.22313,-2.29337 0.61156,-5.733427 -1.29958,-7.491678 l -80.573766,14.2189 c -0.688011,1.987588 -2.446262,3.516502 -4.663188,3.898731 -2.216925,0.382226 -4.357405,-0.458674 -5.733427,-2.064034 l -24.921298,4.3574 c -1.223131,2.36982 -0.611566,5.73343 1.299577,7.49168 1.911142,1.8347 2.522708,5.19831 1.299577,7.49168 -1.223131,2.29337 -0.611566,5.73343 1.299577,7.49168 1.911142,1.8347 2.522708,5.19831 1.299577,7.49168 -1.223131,2.36981 -0.611566,5.73342 1.299577,7.49168 1.911142,1.83469 2.522708,5.1983 1.299577,7.49167 -1.223131,2.36982 -0.611566,5.73343 1.299577,7.49168 1.911143,1.75825 2.522708,5.19831 1.299577,7.49168 -1.223131,2.36982 -0.611566,5.73343 1.299577,7.49168 l 24.921298,-4.35741 c 0.688011,-1.98759 2.446262,-3.5165 4.663188,-3.89873 2.216925,-0.38223 4.357405,0.45868 5.733427,2.06404 l 80.573763,-14.2189 c 1.22313,-2.36982 0.61157,-5.73343 -1.29957,-7.49168 -1.91115,-1.8347 -2.52271,-5.19831 -1.29958,-7.49168 1.22313,-2.29337 0.61156,-5.73343 -1.29958,-7.49168 -1.91114,-1.8347 -2.52271,-5.19831 -1.29958,-7.49168 1.22314,-2.36981 0.61157,-5.73342 -1.29957,-7.49167 -1.91114,-1.8347 -2.52271,-5.19831 -1.29958,-7.49168 1.22313,-2.29337 0.61157,-5.656985 -1.29958,-7.491681 z"
           class="st0"
           inkscape:connector-curvature="0"
           style="fill:#f6f5f6" />
        <path
           stroke="null"
           id="svg_20"
           d="m 56.364932,163.05295 c -1.758251,-1.60536 -4.204513,-2.36982 -6.57433,-1.98759 -2.369817,0.38223 -4.433851,1.91115 -5.50409,4.05163 l -23.239492,4.12806 c -1.07024,-1.45246 -1.299577,-3.66939 -0.53512,-5.1983 1.528914,-2.98139 0.764457,-7.03301 -1.681805,-9.32638 -1.452468,-1.37602 -1.911142,-3.97518 -0.993794,-5.73343 1.528914,-2.98138 0.764457,-7.033 -1.681805,-9.32637 -1.452468,-1.37603 -1.911142,-3.97518 -0.993794,-5.73343 1.528914,-2.98138 0.764457,-7.033 -1.681805,-9.32637 -1.452468,-1.37603 -1.911142,-3.97518 -0.993794,-5.73343 1.528914,-2.98138 0.764457,-7.03301 -1.681805,-9.32638 -1.299577,-1.14668 -1.758251,-3.36361 -1.299577,-5.04541 l 23.239492,-4.12807 c 1.758251,1.60536 4.204513,2.36982 6.57433,1.98759 2.369817,-0.38223 4.433851,-1.91114 5.50409,-4.051624 L 123.79004,84.390329 c 1.07024,1.452468 1.29958,3.669394 0.53512,5.198308 -1.52891,2.981382 -0.76446,7.033004 1.68181,9.326375 1.45246,1.376028 1.91114,3.975178 0.99379,5.733428 -1.52891,2.98138 -0.76446,7.033 1.6818,9.32637 1.45247,1.37603 1.91115,3.97518 0.9938,5.73343 -1.52892,2.98138 -0.76446,7.03301 1.6818,9.32638 1.45247,1.37602 1.91115,3.97517 0.9938,5.73342 -1.52892,2.98139 -0.76446,7.03301 1.6818,9.32638 1.29958,1.14668 1.75825,3.36361 1.29958,5.04541 z"
           class="st6"
           inkscape:connector-curvature="0"
           style="fill:#dce8c7" />
        <g
           stroke="null"
           id="svg_21">
          <g
             stroke="null"
             id="svg_22">
            <path
               id="svg_23"
               d="m 76.470151,125.36522 v 0 c -3.363611,0.61157 -6.497884,-1.60536 -7.10945,-4.96897 l -1.07024,-6.03921 c -0.611566,-3.36361 1.60536,-6.49788 4.96897,-7.10945 v 0 c 3.363611,-0.61156 6.497884,1.60536 7.10945,4.96897 l 1.07024,6.03921 c 0.53512,3.36361 -1.681805,6.49789 -4.96897,7.10945 z"
               class="st2"
               inkscape:connector-curvature="0"
               style="fill:none;stroke:#585f65;stroke-width:2;stroke-miterlimit:10" />
            <path
               id="svg_24"
               d="m 104.21994,137.52009 v 0 c -3.36361,0.61156 -6.497884,-1.60536 -7.10945,-4.96897 l -1.07024,-6.03921 c -0.611566,-3.36361 1.60536,-6.49789 4.96897,-7.10945 v 0 c 3.36361,-0.61157 6.49788,1.60536 7.10945,4.96897 l 1.07024,6.03921 c 0.61157,3.36361 -1.68181,6.57433 -4.96897,7.10945 z"
               class="st2"
               inkscape:connector-curvature="0"
               style="fill:none;stroke:#585f65;stroke-width:2;stroke-miterlimit:10" />
          </g>
          <line
             id="svg_25"
             y2="142.33617"
             x2="81.515564"
             y1="102.43151"
             x1="96.040253"
             class="st3"
             style="fill:none;stroke:#3b4252;stroke-width:2;stroke-miterlimit:10" />
        </g>
        <g
           stroke="null"
           id="svg_26">
          <line
             id="svg_27"
             y2="107.24759"
             x2="38.32375"
             y1="100.44392"
             x1="37.100616"
             class="st4"
             style="opacity:0.98999999;fill:none;stroke:#3b4252;stroke-width:2;stroke-miterlimit:10" />
          <line
             id="svg_28"
             y2="117.7971"
             x2="40.158443"
             y1="111.75789"
             x1="39.088203"
             class="st5"
             style="opacity:0.98999999;fill:none;stroke:#585f65;stroke-width:2;stroke-miterlimit:10" />
          <line
             id="svg_29"
             y2="128.3466"
             x2="42.069588"
             y1="122.3074"
             x1="40.999348"
             class="st5"
             style="opacity:0.98999999;fill:none;stroke:#585f65;stroke-width:2;stroke-miterlimit:10" />
          <line
             id="svg_30"
             y2="138.89612"
             x2="43.904285"
             y1="132.8569"
             x1="42.834045"
             class="st5"
             style="opacity:0.98999999;fill:none;stroke:#585f65;stroke-width:2;stroke-miterlimit:10" />
          <line
             id="svg_31"
             y2="149.36917"
             x2="45.738979"
             y1="143.4064"
             x1="44.668739"
             class="st5"
             style="opacity:0.98999999;fill:none;stroke:#585f65;stroke-width:2;stroke-miterlimit:10" />
          <line
             id="svg_32"
             y2="160.68314"
             x2="47.726566"
             y1="153.87947"
             x1="46.579884"
             class="st5"
             style="opacity:0.98999999;fill:none;stroke:#585f65;stroke-width:2;stroke-miterlimit:10" />
        </g>
        <path
           id="svg_33"
           d="m 124.93672,96.621639 c -1.91114,-1.834697 -2.5227,-5.198308 -1.29957,-7.491678 1.22313,-2.29337 0.61156,-5.733427 -1.29958,-7.491678 l -80.573766,14.2189 c -0.688011,1.987588 -2.446262,3.516502 -4.663188,3.898731 -2.216925,0.382226 -4.357405,-0.458674 -5.733427,-2.064034 l -24.921298,4.3574 c -1.223131,2.36982 -0.611566,5.73343 1.299577,7.49168 1.911142,1.8347 2.522708,5.19831 1.299577,7.49168 -1.223131,2.29337 -0.611566,5.73343 1.299577,7.49168 1.911142,1.8347 2.522708,5.19831 1.299577,7.49168 -1.223131,2.36981 -0.611566,5.73342 1.299577,7.49168 1.911142,1.83469 2.522708,5.1983 1.299577,7.49167 -1.223131,2.36982 -0.611566,5.73343 1.299577,7.49168 1.911143,1.75825 2.522708,5.19831 1.299577,7.49168 -1.223131,2.36982 -0.611566,5.73343 1.299577,7.49168 l 24.921298,-4.35741 c 0.688011,-1.98759 2.446262,-3.5165 4.663188,-3.89873 2.216925,-0.38223 4.357405,0.45868 5.733427,2.06404 l 80.573763,-14.2189 c 1.22313,-2.36982 0.61157,-5.73343 -1.29957,-7.49168 -1.91115,-1.8347 -2.52271,-5.19831 -1.29958,-7.49168 1.22313,-2.29337 0.61156,-5.73343 -1.29958,-7.49168 -1.91114,-1.8347 -2.52271,-5.19831 -1.29958,-7.49168 1.22314,-2.36981 0.61157,-5.73342 -1.29957,-7.49167 -1.91114,-1.8347 -2.52271,-5.19831 -1.29958,-7.49168 1.22313,-2.29337 0.61157,-5.656985 -1.29958,-7.491681 z"
           class="st3"
           inkscape:connector-curvature="0"
           style="fill:none;stroke:#3b4252;stroke-width:2;stroke-miterlimit:10" />
      </g>
      <g
         stroke="null"
         id="svg_34">
        <path
           stroke="null"
           id="svg_35"
           d="m 40.005553,181.47636 -1.07024,-1.91114 c -0.382228,-0.68801 -1.146685,-1.14668 -1.987588,-1.14668 -0.840903,0 -1.528914,0.45867 -1.987588,1.14668 l -1.07024,1.91114 H 4.458303 l -1.146685,-1.52891 c -2.599154,-3.5165 -2.599154,-8.71481 0,-12.23131 0.53512,-0.76446 0.53512,-2.29337 0,-3.05783 -2.599154,-3.5165 -2.599154,-8.71481 0,-12.23131 0.53512,-0.76446 0.53512,-2.29337 0,-3.05783 -2.599154,-3.5165 -2.599154,-8.71481 0,-12.23131 0.53512,-0.76446 0.53512,-2.29337 0,-3.05783 -2.599154,-3.5165 -2.599154,-8.71481 0,-12.23131 0.53512,-0.76446 0.53512,-2.29337 0,-3.05783 -2.599154,-3.5165 -2.599154,-8.71481 0,-12.23131 l 1.146685,-1.52892 h 29.431594 l 1.07024,1.91115 c 0.382228,0.68801 1.146685,1.14668 1.987588,1.14668 0.840903,0 1.528914,-0.45867 1.987588,-1.14668 l 1.07024,-1.91115 h 86.001407 l 1.14669,1.52892 c 2.59915,3.5165 2.59915,8.71481 0,12.23131 -0.53512,0.76446 -0.53512,2.29337 0,3.05783 2.59915,3.5165 2.59915,8.71481 0,12.23131 -0.53512,0.76446 -0.53512,2.29337 0,3.05783 2.59915,3.5165 2.59915,8.71481 0,12.23131 -0.53512,0.76446 -0.53512,2.29337 0,3.05783 2.59915,3.5165 2.59915,8.71481 0,12.23131 -0.53512,0.76446 -0.53512,2.29337 0,3.05783 2.59915,3.5165 2.59915,8.71481 0,12.23131 l -1.14669,1.52891 z"
           class="st0"
           inkscape:connector-curvature="0"
           style="fill:#f6f5f6" />
        <path
           stroke="null"
           id="svg_36"
           d="m 124.09582,124.14209 c -1.60536,-2.14048 -1.60536,-5.50409 0,-7.64457 1.60536,-2.14048 1.60536,-5.50409 0,-7.64457 H 42.222479 c -1.07024,1.8347 -3.057828,3.05783 -5.274753,3.05783 -2.293371,0 -4.204513,-1.22313 -5.274753,-3.05783 H 6.369447 c -1.60536,2.14048 -1.60536,5.50409 0,7.64457 1.60536,2.14048 1.60536,5.50409 0,7.64457 -1.60536,2.14048 -1.60536,5.50409 0,7.64457 1.60536,2.14048 1.60536,5.50409 0,7.64457 -1.60536,2.14048 -1.60536,5.50409 0,7.64457 1.60536,2.14048 1.60536,5.50409 0,7.64457 -1.60536,2.14048 -1.60536,5.50409 0,7.64457 1.60536,2.14048 1.60536,5.50409 0,7.64457 -1.60536,2.14048 -1.60536,5.50409 0,7.64457 h 25.303526 c 1.07024,-1.8347 3.057828,-3.05783 5.274753,-3.05783 2.293371,0 4.204513,1.22313 5.274753,3.05783 h 81.873341 c 1.60536,-2.14048 1.60536,-5.50409 0,-7.64457 -1.60536,-2.14048 -1.60536,-5.50409 0,-7.64457 1.60536,-2.14048 1.60536,-5.50409 0,-7.64457 -1.60536,-2.14048 -1.60536,-5.50409 0,-7.64457 1.60536,-2.14048 1.60536,-5.50409 0,-7.64457 -1.60536,-2.14048 -1.60536,-5.50409 0,-7.64457 1.60536,-2.14048 1.60536,-5.50409 0,-7.64457 z"
           class="st0"
           inkscape:connector-curvature="0"
           style="fill:#f6f5f6" />
        <path
           stroke="null"
           id="svg_37"
           d="m 44.974523,177.65408 c -1.452468,-1.91114 -3.669394,-3.05783 -6.115656,-3.05783 -2.446262,0 -4.663188,1.14669 -6.115656,3.05783 H 9.12149 c -0.764457,-1.60536 -0.688011,-3.82229 0.382228,-5.19831 1.987588,-2.6756 1.987588,-6.80367 0,-9.47927 -1.146685,-1.60535 -1.146685,-4.20451 0,-5.80987 1.987588,-2.6756 1.987588,-6.80367 0,-9.47927 -1.146685,-1.60536 -1.146685,-4.20451 0,-5.80987 1.987588,-2.6756 1.987588,-6.80367 0,-9.47927 -1.146685,-1.60536 -1.146685,-4.20451 0,-5.80987 1.987588,-2.6756 1.987588,-6.80367 0,-9.47927 -1.07024,-1.37602 -1.146685,-3.59294 -0.382228,-5.1983 h 23.621721 c 1.452468,1.91114 3.669394,3.05782 6.115656,3.05782 2.369817,0 4.663188,-1.14668 6.115656,-3.05782 h 80.191537 c 0.76446,1.60536 0.68801,3.82228 -0.38223,5.1983 -1.98759,2.6756 -1.98759,6.80367 0,9.47927 1.14669,1.60536 1.14669,4.20451 0,5.80987 -1.98759,2.6756 -1.98759,6.80367 0,9.47927 1.14669,1.60536 1.14669,4.20451 0,5.80987 -1.98759,2.6756 -1.98759,6.80367 0,9.47927 1.14669,1.60536 1.14669,4.20451 0,5.80987 -1.98759,2.6756 -1.98759,6.80367 0,9.47927 1.07024,1.37602 1.14669,3.59295 0.38223,5.19831 z"
           class="st7"
           inkscape:connector-curvature="0"
           style="fill:#fcfae0" />
        <g
           stroke="null"
           id="svg_38">
          <g
             stroke="null"
             id="svg_39">
            <path
               id="svg_40"
               d="m 71.348289,144.01797 v 0 c -3.363611,0 -6.115656,-2.75204 -6.115656,-6.11565 v -6.11566 c 0,-3.36361 2.752045,-6.11566 6.115656,-6.11566 v 0 c 3.363611,0 6.115656,2.75205 6.115656,6.11566 v 6.11566 c 0,3.44005 -2.752045,6.11565 -6.115656,6.11565 z"
               class="st8"
               inkscape:connector-curvature="0"
               style="fill:none;stroke:#3b4252;stroke-width:4;stroke-miterlimit:10" />
            <path
               id="svg_41"
               d="m 96.57537,160.83603 v 0 c -3.363611,0 -6.115656,-2.75205 -6.115656,-6.11566 v -6.11566 c 0,-3.36361 2.752045,-6.11565 6.115656,-6.11565 v 0 c 3.363611,0 6.11566,2.75204 6.11566,6.11565 v 6.11566 c 0,3.44006 -2.752049,6.11566 -6.11566,6.11566 z"
               class="st8"
               inkscape:connector-curvature="0"
               style="fill:none;stroke:#3b4252;stroke-width:4;stroke-miterlimit:10" />
          </g>
          <line
             id="svg_42"
             y2="161.67693"
             x2="73.335876"
             y1="124.90655"
             x1="94.587784"
             class="st8"
             style="fill:none;stroke:#3b4252;stroke-width:4;stroke-miterlimit:10" />
        </g>
        <g
           stroke="null"
           id="svg_43">
          <line
             id="svg_44"
             y2="119.55535"
             x2="36.947723"
             y1="112.67524"
             x1="36.947723"
             class="st4"
             style="opacity:0.98999999;fill:none;stroke:#3b4252;stroke-width:2;stroke-miterlimit:10" />
          <line
             id="svg_45"
             y2="130.25775"
             x2="36.947723"
             y1="124.14209"
             x1="36.947723"
             class="st4"
             style="opacity:0.98999999;fill:none;stroke:#3b4252;stroke-width:2;stroke-miterlimit:10" />
          <line
             id="svg_46"
             y2="141.03659"
             x2="36.947723"
             y1="134.92093"
             x1="36.947723"
             class="st4"
             style="opacity:0.98999999;fill:none;stroke:#3b4252;stroke-width:2;stroke-miterlimit:10" />
          <line
             id="svg_47"
             y2="151.73898"
             x2="36.947723"
             y1="145.62334"
             x1="36.947723"
             class="st4"
             style="opacity:0.98999999;fill:none;stroke:#3b4252;stroke-width:2;stroke-miterlimit:10" />
          <line
             id="svg_48"
             y2="162.44139"
             x2="36.947723"
             y1="156.32573"
             x1="36.947723"
             class="st4"
             style="opacity:0.98999999;fill:none;stroke:#3b4252;stroke-width:2;stroke-miterlimit:10" />
          <line
             id="svg_49"
             y2="173.90823"
             x2="36.947723"
             y1="167.02812"
             x1="36.947723"
             class="st4"
             style="opacity:0.98999999;fill:none;stroke:#3b4252;stroke-width:2;stroke-miterlimit:10" />
        </g>
        <path
           id="svg_50"
           d="m 124.09582,124.14209 c -1.60536,-2.14048 -1.60536,-5.50409 0,-7.64457 1.60536,-2.14048 1.60536,-5.50409 0,-7.64457 H 42.222479 c -1.07024,1.8347 -3.057828,3.05783 -5.274753,3.05783 -2.293371,0 -4.204513,-1.22313 -5.274753,-3.05783 H 6.369447 c -1.60536,2.14048 -1.60536,5.50409 0,7.64457 1.60536,2.14048 1.60536,5.50409 0,7.64457 -1.60536,2.14048 -1.60536,5.50409 0,7.64457 1.60536,2.14048 1.60536,5.50409 0,7.64457 -1.60536,2.14048 -1.60536,5.50409 0,7.64457 1.60536,2.14048 1.60536,5.50409 0,7.64457 -1.60536,2.14048 -1.60536,5.50409 0,7.64457 1.60536,2.14048 1.60536,5.50409 0,7.64457 -1.60536,2.14048 -1.60536,5.50409 0,7.64457 h 25.303526 c 1.07024,-1.8347 3.057828,-3.05783 5.274753,-3.05783 2.293371,0 4.204513,1.22313 5.274753,3.05783 h 81.873341 c 1.60536,-2.14048 1.60536,-5.50409 0,-7.64457 -1.60536,-2.14048 -1.60536,-5.50409 0,-7.64457 1.60536,-2.14048 1.60536,-5.50409 0,-7.64457 -1.60536,-2.14048 -1.60536,-5.50409 0,-7.64457 1.60536,-2.14048 1.60536,-5.50409 0,-7.64457 -1.60536,-2.14048 -1.60536,-5.50409 0,-7.64457 1.60536,-2.14048 1.60536,-5.50409 0,-7.64457 z"
           class="st3"
           inkscape:connector-curvature="0"
           style="fill:none;stroke:#3b4252;stroke-width:2;stroke-miterlimit:10" />
      </g>
      <path
         stroke="null"
         id="svg_51"
         d="m 21.658585,64.590891 v 0 c -1.299577,0 -2.293371,-0.993794 -2.293371,-2.293371 v -6.115656 c 0,-1.299577 0.993794,-2.293371 2.293371,-2.293371 v 0 c 1.299577,0 2.293371,0.993794 2.293371,2.293371 v 6.115656 c 0,1.223131 -1.07024,2.293371 -2.293371,2.293371 z"
         class="st9"
         inkscape:connector-curvature="0"
         style="fill:#ce5e4f" />
      <path
         stroke="null"
         id="svg_52"
         d="m 52.236865,61.533063 v 0 c -1.299577,0 -2.293371,-0.993794 -2.293371,-2.293371 v -3.057828 c 0,-1.299577 0.993794,-2.293371 2.293371,-2.293371 v 0 c 1.299577,0 2.293371,0.993794 2.293371,2.293371 v 3.057828 c 0,1.223131 -1.07024,2.293371 -2.293371,2.293371 z"
         class="st1"
         inkscape:connector-curvature="0"
         style="fill:#cce5f5" />
      <path
         stroke="null"
         id="svg_53"
         d="m 82.050687,33.248155 v 0 c -1.299577,0 -2.293371,-0.993794 -2.293371,-2.293371 V 29.42587 c 0,-1.299577 0.993794,-2.293371 2.293371,-2.293371 v 0 c 1.299577,0 2.293371,0.993794 2.293371,2.293371 v 1.528914 c 0,1.223131 -1.07024,2.293371 -2.293371,2.293371 z"
         class="st10"
         inkscape:connector-curvature="0"
         style="fill:#3b4252" />
    </g>
  </g>
</svg>
