<?xml version="1.0" encoding="UTF-8" standalone="no"?>
<svg
   xmlns:dc="http://purl.org/dc/elements/1.1/"
   xmlns:cc="http://creativecommons.org/ns#"
   xmlns:rdf="http://www.w3.org/1999/02/22-rdf-syntax-ns#"
   xmlns:svg="http://www.w3.org/2000/svg"
   xmlns="http://www.w3.org/2000/svg"
   xmlns:xlink="http://www.w3.org/1999/xlink"
   xmlns:sodipodi="http://sodipodi.sourceforge.net/DTD/sodipodi-0.dtd"
   xmlns:inkscape="http://www.inkscape.org/namespaces/inkscape"
   width="185"
   height="185"
   version="1.1"
   id="svg4810"
   sodipodi:docname="lift.svg"
   inkscape:version="0.92.3 (2405546, 2018-03-11)">
  <metadata
     id="metadata4814">
    <rdf:RDF>
      <cc:Work
         rdf:about="">
        <dc:format>image/svg+xml</dc:format>
        <dc:type
           rdf:resource="http://purl.org/dc/dcmitype/StillImage" />
      </cc:Work>
    </rdf:RDF>
  </metadata>
  <sodipodi:namedview
     pagecolor="#ffffff"
     bordercolor="#666666"
     borderopacity="1"
     objecttolerance="10"
     gridtolerance="10"
     guidetolerance="10"
     inkscape:pageopacity="0"
     inkscape:pageshadow="2"
     inkscape:window-width="1536"
     inkscape:window-height="801"
     id="namedview4812"
     showgrid="false"
     inkscape:zoom="1.2896175"
     inkscape:cx="-75.819915"
     inkscape:cy="91.5"
     inkscape:window-x="-8"
     inkscape:window-y="-8"
     inkscape:window-maximized="1"
     inkscape:current-layer="svg4810" />
  <defs
     id="defs4796">
    <symbol
       id="svg_2"
       viewBox="0 0  841.9 595.3">
      <g
         id="svg_1">
        <g
           id="svg_4">
          <g
             id="svg_5">
            <path
               id="svg_6"
               stroke-miterlimit="10"
               d="m 621.4,247.3 c -1.1,0 -2,-0.9 -2,-2 v -169 c 0,-1.1 0.9,-2 2,-2 h 181 c 1.1,0 2,0.9 2,2 v 167 c 0,2.2 -1.8,4 -4,4 z"
               inkscape:connector-curvature="0"
               style="fill:#f6f5f6;fill-rule:evenodd;stroke:#3b4252;stroke-width:2;stroke-miterlimit:10" />
          </g>
          <path
             id="svg_7"
             stroke-miterlimit="10"
             d="M 657.4,183.3"
             inkscape:connector-curvature="0"
             style="fill:none;fill-rule:evenodd;stroke:#585f65;stroke-width:4;stroke-miterlimit:10" />
          <path
             id="svg_8"
             stroke-miterlimit="10"
             d="M 637.4,183.3"
             inkscape:connector-curvature="0"
             style="fill:none;fill-rule:evenodd;stroke:#585f65;stroke-width:4;stroke-miterlimit:10" />
        </g>
        <g
           id="svg_9">
          <g
             id="svg_10">
            <path
               id="svg_11"
               d="m 628.5,246 c -1.1,0 -2,-0.9 -2,-2 V 82 c 0,-1.1 0.9,-2 2,-2 h 173 c 1.1,0 2,0.9 2,2 v 160 c 0,2.2 -1.8,4 -4,4 z"
               inkscape:connector-curvature="0"
               style="fill:#fcfae0;fill-rule:evenodd" />
          </g>
          <path
             id="svg_12"
             stroke-miterlimit="10"
             d="M 664.5,189"
             inkscape:connector-curvature="0"
             style="fill:none;fill-rule:evenodd;stroke:#585f65;stroke-width:4;stroke-miterlimit:10" />
          <path
             id="svg_13"
             stroke-miterlimit="10"
             d="M 644.5,189"
             inkscape:connector-curvature="0"
             style="fill:none;fill-rule:evenodd;stroke:#585f65;stroke-width:4;stroke-miterlimit:10" />
        </g>
        <path
           id="svg_14"
           d="m 756.4,244.3 h -89 c -2.2,0 -4,-1.8 -4,-4 v -126 c 0,-2.2 1.8,-4 4,-4 h 89 c 2.2,0 4,1.8 4,4 v 126 c 0,2.2 -1.8,4 -4,4 z"
           inkscape:connector-curvature="0"
           style="fill:#f6f5f6;fill-rule:evenodd" />
        <path
           id="svg_15"
           d="m 670.4,244.3 c -1.1,0 -2,-0.9 -2,-2 v -125 c 0,-1.1 0.9,-2 2,-2 h 87 c 1.1,0 2,0.9 2,2 v 123 c 0,2.2 -1.8,4 -4,4 z"
           inkscape:connector-curvature="0"
           style="fill:#cce5f5;fill-rule:evenodd" />
        <path
           id="svg_16"
           stroke-miterlimit="10"
           d="m 756.4,245.3 h -89 c -2.2,0 -4,-1.8 -4,-4 v -127 c 0,-2.2 1.8,-4 4,-4 h 89 c 2.2,0 4,1.8 4,4 v 127 c 0,2.2 -1.8,4 -4,4 z"
           inkscape:connector-curvature="0"
           style="fill:none;fill-rule:evenodd;stroke:#3b4252;stroke-width:4;stroke-miterlimit:10" />
        <line
           id="svg_17"
           stroke-miterlimit="10"
           x1="711.40002"
           y1="246.3"
           x2="711.40002"
           y2="110.3"
           style="fill:none;fill-rule:evenodd;stroke:#3b4252;stroke-width:2;stroke-miterlimit:10" />
        <circle
           id="svg_18"
           cx="651.40002"
           cy="94.300003"
           r="5"
           style="fill:#ce5e4f" />
        <circle
           id="svg_19"
           cx="780.5"
           cy="92.099998"
           r="6"
           style="fill:#ce5e4f" />
        <circle
           id="svg_20"
           cx="704.40002"
           cy="49.599998"
           r="10"
           style="fill:#d5e5d1" />
        <rect
           id="svg_21"
           x="698.90002"
           y="87"
           width="23.5"
           height="17.4"
           style="fill:#3b4252" />
        <text
           id="svg_22"
           transform="translate(707.4417,100.6588)"
           font-size="12px"
           style="font-size:12px;font-family:MyriadPro-Bold;fill:#ffffff">1</text>
        <g
           id="svg_23">
          <rect
             id="svg_24"
             x="770.09998"
             y="156.60001"
             width="12.7"
             height="24.4"
             style="fill:#3b4252" />
          <path
             id="svg_25"
             d="m 779.6,165.6 h -6 c 0,0 -1.5,0 -0.7,-1.3 0.8,-1.3 3,-4.4 3,-4.4 0,0 0.9,-0.8 1.6,0 0.7,0.8 3,4.6 3,4.6 0,0 0.3,1.1 -0.9,1.1 z"
             inkscape:connector-curvature="0"
             style="fill:#f2f1f0" />
          <path
             id="svg_26"
             d="m 779.6,171.1 h -6 c 0,0 -1.5,0 -0.7,1.3 0.9,1.2 3,4.4 3,4.4 0,0 0.9,0.8 1.6,0 0.7,-0.8 3,-4.6 3,-4.6 0,0 0.3,-1.1 -0.9,-1.1 z"
             inkscape:connector-curvature="0"
             style="fill:#f2f1f0" />
        </g>
      </g>
    </symbol>
  </defs>
  <g
     id="g4803">
    <title
       id="title4798">background</title>
    <rect
       x="-1"
       y="-1"
       width="152"
       height="185"
       id="canvas_background"
       style="fill:none" />
    <g
       id="canvasGrid"
       display="none"
       style="display:none">
      <rect
         id="svg_27"
         width="100%"
         height="100%"
         x="0"
         y="0"
         style="fill:url(#gridpattern);stroke-width:0" />
    </g>
  </g>
  <g
     id="g4808"
     transform="translate(-103.27713,29.131015)">
    <title
       id="title4805">Layer 1</title>
    <use
       id="svg_3"
       xlink:href="#svg_2"
       transform="matrix(4.0809215,0,0,4.0048818,-422.64734,-86.586264)"
       y="-21.115852"
       x="-4.8932638"
       stroke="null"
       width="100%"
       height="100%" />
  </g>
</svg>
