<?xml version="1.0" encoding="UTF-8" standalone="no"?>
<svg
   xmlns:dc="http://purl.org/dc/elements/1.1/"
   xmlns:cc="http://creativecommons.org/ns#"
   xmlns:rdf="http://www.w3.org/1999/02/22-rdf-syntax-ns#"
   xmlns:svg="http://www.w3.org/2000/svg"
   xmlns="http://www.w3.org/2000/svg"
   xmlns:sodipodi="http://sodipodi.sourceforge.net/DTD/sodipodi-0.dtd"
   xmlns:inkscape="http://www.inkscape.org/namespaces/inkscape"
   width="185"
   height="185"
   version="1.1"
   id="svg4683"
   sodipodi:docname="radio.svg"
   inkscape:version="0.92.3 (2405546, 2018-03-11)">
  <metadata
     id="metadata4689">
    <rdf:RDF>
      <cc:Work
         rdf:about="">
        <dc:format>image/svg+xml</dc:format>
        <dc:type
           rdf:resource="http://purl.org/dc/dcmitype/StillImage" />
      </cc:Work>
    </rdf:RDF>
  </metadata>
  <defs
     id="defs4687" />
  <sodipodi:namedview
     pagecolor="#ffffff"
     bordercolor="#666666"
     borderopacity="1"
     objecttolerance="10"
     gridtolerance="10"
     guidetolerance="10"
     inkscape:pageopacity="0"
     inkscape:pageshadow="2"
     inkscape:window-width="1536"
     inkscape:window-height="801"
     id="namedview4685"
     showgrid="false"
     inkscape:zoom="1.2896175"
     inkscape:cx="-104.25424"
     inkscape:cy="91.5"
     inkscape:window-x="-8"
     inkscape:window-y="-8"
     inkscape:window-maximized="1"
     inkscape:current-layer="svg4683" />
  <g
     id="g4681"
     transform="translate(5.7759869,3.75456)">
    <g
       stroke="null"
       id="svg_1">
      <path
         stroke="null"
         id="svg_2"
         d="m 104.07041,18.946311 -6.891843,0.984549 v 4.316869 c 0,0 0,0 -0.07573,0 -0.530142,-0.07573 -1.060284,0.07574 -1.590425,0.378673 -1.136018,0.605876 -1.590425,1.893364 -1.060284,2.802178 0.302938,0.605876 0.908815,0.908815 1.590425,0.908815 0.454407,0 0.908815,-0.151469 1.287487,-0.378673 0.83308,-0.454407 1.287487,-1.287487 1.211753,-2.044833 v -4.544073 l 3.786727,-0.530142 v 2.726444 c 0,0 0,0 -0.0757,0 -0.53014,-0.07573 -1.06028,0.07574 -1.59042,0.378673 -1.136028,0.605876 -1.590435,1.893364 -1.060294,2.802178 0.302938,0.454407 0.757354,0.757345 1.363224,0.83308 0.0757,0 0.15147,0 0.30294,0 0.45441,0 0.90882,-0.151469 1.28749,-0.378673 0.53014,-0.302938 0.90881,-0.681611 1.06028,-1.211753 0.0757,-0.227204 0.15147,-0.530142 0.15147,-0.757345 v 0 -6.285967 h 0.30294 z"
         inkscape:connector-curvature="0"
         style="fill:#ce5e4f" />
      <path
         stroke="null"
         id="svg_3"
         d="m 125.65476,1.75457 v 3.710993 c 0,0 0,0 -0.0757,0 -0.45441,-0.075735 -0.90881,0.075735 -1.36322,0.302938 -0.98455,0.530142 -1.36322,1.590425 -0.90882,2.423505 0.30294,0.454407 0.83308,0.757345 1.36323,0.757345 0.37867,0 0.75734,-0.075735 1.13601,-0.302938 0.68162,-0.378673 1.13602,-1.136018 1.06029,-1.741895 V 3.042056 L 125.6548,1.754569 Z"
         inkscape:connector-curvature="0"
         style="fill:#3b4252" />
      <g
         stroke="null"
         id="svg_4">
        <g
           stroke="null"
           id="svg_5"
           style="opacity:0.4">
          <g
             stroke="null"
             id="svg_6">
            <path
               stroke="null"
               id="svg_7"
               d="m 86.954404,56.207707 c 28.854856,0 52.332566,23.477709 52.332566,52.332573 0,28.85486 -23.47771,52.33257 -52.332566,52.33257 -28.854861,0 -52.33257,-23.47771 -52.33257,-52.33257 0,-28.854864 23.477709,-52.332573 52.33257,-52.332573 m 0,-0.757345 c -29.233534,0 -53.089915,23.780647 -53.089915,53.089918 0,29.30926 23.780647,53.08991 53.089915,53.08991 29.309266,0 53.089916,-23.78065 53.089916,-53.08991 0,-29.309271 -23.85638,-53.089918 -53.089916,-53.089918 z"
               inkscape:connector-curvature="0"
               style="fill:#585f65" />
          </g>
        </g>
        <g
           stroke="null"
           id="svg_8"
           style="opacity:0.2">
          <g
             stroke="null"
             id="svg_9">
            <path
               stroke="null"
               id="svg_10"
               d="m 86.954404,46.362216 c 34.232016,0 62.102326,27.870312 62.102326,62.102324 0,34.23202 -27.87031,62.10233 -62.102326,62.10233 -34.232014,0 -62.102326,-27.87031 -62.102326,-62.10233 0,-34.232012 27.794578,-62.102324 62.102326,-62.102324 m 0,-0.757345 c -34.686421,0 -62.859672,28.248985 -62.859672,62.859669 0,34.61069 28.248985,62.85967 62.859672,62.85967 34.610686,0 62.859676,-28.24898 62.859676,-62.85967 0,-34.610684 -28.24899,-62.859669 -62.859676,-62.859669 z"
               inkscape:connector-curvature="0"
               style="fill:#585f65" />
          </g>
        </g>
        <g
           stroke="null"
           id="svg_11"
           style="opacity:0.1">
          <g
             stroke="null"
             id="svg_12">
            <path
               stroke="null"
               id="svg_13"
               d="m 86.954404,36.59246 c 39.684906,0 71.947816,32.262916 71.947816,71.94782 0,39.6849 -32.26291,71.94781 -71.947816,71.94781 -39.684901,0 -71.947817,-32.26291 -71.947817,-71.94781 0,-39.684904 32.262916,-71.94782 71.947817,-71.94782 m 0,-0.757345 c -40.063574,0 -72.705162,32.641588 -72.705162,72.705165 0,40.06357 32.641588,72.70516 72.705162,72.70516 40.063576,0 72.705166,-32.64159 72.705166,-72.70516 0,-40.063577 -32.64159,-72.705165 -72.705166,-72.705165 z"
               inkscape:connector-curvature="0"
               style="fill:#585f65" />
          </g>
        </g>
      </g>
      <path
         stroke="null"
         id="svg_14"
         d="m 109.67477,166.4772 v -1.51469 H 64.234042 v 1.51469 H 50.601824 v -2.04483 c -3.559524,-1.28749 -6.058764,-4.61981 -6.058764,-8.558 V 58.934151 c 0,-4.99848 4.089665,-9.088145 9.088145,-9.088145 H 120.2776 c 4.99848,0 9.08815,4.089665 9.08815,9.088145 v 96.940219 c 0,3.93819 -2.49924,7.34625 -6.05877,8.558 v 2.04483 z"
         inkscape:connector-curvature="0"
         style="fill:#f6f5f6" />
      <g
         stroke="null"
         id="svg_15">
        <path
           stroke="null"
           id="svg_16"
           d="M 120.2776,160.41844 H 53.631205 c -2.49924,0 -4.544073,-2.04483 -4.544073,-4.54407 V 58.934151 c 0,-2.49924 2.044833,-4.544073 4.544073,-4.544073 H 120.2776 c 2.49924,0 4.54408,2.044833 4.54408,4.544073 v 96.940219 c 0,2.49924 -2.04484,4.54407 -4.54408,4.54407 z"
           inkscape:connector-curvature="0"
           style="clip-rule:evenodd;fill:#f6f5f6;fill-rule:evenodd" />
        <path
           stroke="null"
           id="svg_17"
           d="m 55.145896,159.66109 c -1.287487,0 -2.272036,-0.98455 -2.272036,-2.27203 V 60.448842 c 0,-1.287487 0.984549,-2.272036 2.272036,-2.272036 h 66.646394 c 1.28749,0 2.27204,0.984549 2.27204,2.272036 v 96.940218 c 0,1.28748 -0.98455,2.27203 -2.27204,2.27203 z"
           inkscape:connector-curvature="0"
           style="clip-rule:evenodd;fill:#cce5f5;fill-rule:evenodd" />
        <circle
           id="svg_18"
           r="22.720364"
           cy="122.55117"
           cx="86.954407"
           stroke-miterlimit="10"
           style="clip-rule:evenodd;fill:#dddfe1;fill-rule:evenodd;stroke:#3b4252;stroke-width:2;stroke-miterlimit:10" />
        <circle
           id="svg_19"
           r="11.360178"
           cy="80.897171"
           cx="86.954407"
           stroke-miterlimit="10"
           style="clip-rule:evenodd;fill:#dddfe1;fill-rule:evenodd;stroke:#3b4252;stroke-width:2;stroke-miterlimit:10" />
        <circle
           stroke="null"
           id="svg_20"
           r="3.786726"
           cy="80.897171"
           cx="86.954407"
           style="clip-rule:evenodd;fill:#3b4252;fill-rule:evenodd" />
        <circle
           id="svg_21"
           r="18.933638"
           cy="122.55117"
           cx="86.954407"
           stroke-miterlimit="10"
           style="clip-rule:evenodd;fill:none;fill-rule:evenodd;stroke:#3b4252;stroke-miterlimit:10" />
        <circle
           stroke="null"
           id="svg_22"
           r="3.786726"
           cy="122.55117"
           cx="86.954407"
           style="clip-rule:evenodd;fill:#3b4252;fill-rule:evenodd" />
        <line
           id="svg_23"
           y2="162.69048"
           x2="112.70415"
           y1="162.69048"
           x1="120.2776"
           stroke-miterlimit="10"
           style="clip-rule:evenodd;fill:none;fill-rule:evenodd;stroke:#3b4252;stroke-width:2;stroke-miterlimit:10" />
        <line
           id="svg_24"
           y2="162.69048"
           x2="53.631207"
           y1="162.69048"
           x1="61.204659"
           stroke-miterlimit="10"
           style="clip-rule:evenodd;fill:none;fill-rule:evenodd;stroke:#3b4252;stroke-width:2;stroke-miterlimit:10" />
        <path
           id="svg_25"
           d="M 120.2776,160.41844 H 53.631205 c -2.49924,0 -4.544073,-2.04483 -4.544073,-4.54407 V 58.934151 c 0,-2.49924 2.044833,-4.544073 4.544073,-4.544073 H 120.2776 c 2.49924,0 4.54408,2.044833 4.54408,4.544073 v 96.940219 c 0,2.49924 -2.04484,4.54407 -4.54408,4.54407 z"
           stroke-miterlimit="10"
           inkscape:connector-curvature="0"
           style="clip-rule:evenodd;fill:none;fill-rule:evenodd;stroke:#3b4252;stroke-width:4;stroke-miterlimit:10" />
        <g
           stroke="null"
           id="svg_26">
          <line
             id="svg_27"
             y2="152.84499"
             x2="56.660587"
             y1="149.8156"
             x1="59.689968"
             stroke-miterlimit="10"
             style="clip-rule:evenodd;fill:none;fill-rule:evenodd;stroke:#3b4252;stroke-width:2;stroke-miterlimit:10" />
          <line
             id="svg_28"
             y2="152.84499"
             x2="60.447315"
             y1="149.8156"
             x1="63.476696"
             stroke-miterlimit="10"
             style="clip-rule:evenodd;fill:none;fill-rule:evenodd;stroke:#3b4252;stroke-width:2;stroke-miterlimit:10" />
        </g>
      </g>
      <path
         stroke="null"
         id="svg_29"
         d="m 169.88373,59.312823 -9.99696,1.438956 v 6.285967 c 0,0 -0.0757,0 -0.0757,0 -0.75734,-0.07573 -1.59042,0.07573 -2.27203,0.530142 -1.59043,0.908815 -2.27204,2.726444 -1.51469,4.089665 0.4544,0.83308 1.36322,1.287487 2.34777,1.287487 0.60587,0 1.28749,-0.151469 1.89336,-0.530142 1.21176,-0.681611 1.89337,-1.893364 1.81763,-3.029382 v -6.66464 l 5.60436,-0.83308 v 4.013931 c 0,0 -0.0757,0 -0.0757,0 -0.75734,-0.07573 -1.59042,0.07574 -2.27203,0.530142 -1.59043,0.908815 -2.27204,2.726444 -1.51469,4.089665 0.37867,0.681611 1.13601,1.136018 1.96909,1.211753 0.15147,0 0.22721,0 0.37868,0 0.60587,0 1.28748,-0.151469 1.89336,-0.530142 0.75735,-0.454407 1.28749,-1.060284 1.59043,-1.741895 0.15146,-0.378673 0.2272,-0.757345 0.2272,-1.060284 v 0 -9.088145 z"
         inkscape:connector-curvature="0"
         style="fill:#d5e5d1" />
      <path
         stroke="null"
         id="svg_30"
         d="m 7.736071,117.40122 v 6.28597 c 0,0 -0.075735,0 -0.075735,0 -0.757345,-0.0757 -1.590425,0.0757 -2.272036,0.53014 -1.590425,0.90881 -2.272036,2.72644 -1.514691,4.08966 0.454407,0.83308 1.363222,1.28749 2.347771,1.28749 0.605876,0 1.287487,-0.15147 1.893364,-0.53014 1.211753,-0.68161 1.893364,-1.89337 1.817629,-3.02938 v -6.66464 z"
         inkscape:connector-curvature="0"
         style="fill:#3b4252" />
    </g>
  </g>
</svg>
