<?xml version="1.0" encoding="UTF-8" standalone="no"?>
<svg
   xmlns:dc="http://purl.org/dc/elements/1.1/"
   xmlns:cc="http://creativecommons.org/ns#"
   xmlns:rdf="http://www.w3.org/1999/02/22-rdf-syntax-ns#"
   xmlns:svg="http://www.w3.org/2000/svg"
   xmlns="http://www.w3.org/2000/svg"
   xmlns:sodipodi="http://sodipodi.sourceforge.net/DTD/sodipodi-0.dtd"
   xmlns:inkscape="http://www.inkscape.org/namespaces/inkscape"
   width="185"
   height="185"
   version="1.1"
   id="svg4077"
   sodipodi:docname="transport.svg"
   inkscape:version="0.92.3 (2405546, 2018-03-11)">
  <metadata
     id="metadata4083">
    <rdf:RDF>
      <cc:Work
         rdf:about="">
        <dc:format>image/svg+xml</dc:format>
        <dc:type
           rdf:resource="http://purl.org/dc/dcmitype/StillImage" />
      </cc:Work>
    </rdf:RDF>
  </metadata>
  <defs
     id="defs4081" />
  <sodipodi:namedview
     pagecolor="#ffffff"
     bordercolor="#666666"
     borderopacity="1"
     objecttolerance="10"
     gridtolerance="10"
     guidetolerance="10"
     inkscape:pageopacity="0"
     inkscape:pageshadow="2"
     inkscape:window-width="1536"
     inkscape:window-height="801"
     id="namedview4079"
     showgrid="false"
     inkscape:zoom="3.4535519"
     inkscape:cx="113.49368"
     inkscape:cy="105.58659"
     inkscape:window-x="-8"
     inkscape:window-y="-8"
     inkscape:window-maximized="1"
     inkscape:current-layer="svg4077" />
  <g
     id="g4075"
     transform="translate(-0.0706945,13.41713)">
    <g
       id="svg_44">
      <g
         id="svg_1"
         stroke="null">
        <polyline
           stroke-miterlimit="10"
           points="67.24726867675781,82.20605254173279 67.24726867675781,44.96570372581482 97.03954315185547,44.96570372581482 97.03954315185547,137.3217523097992 "
           id="svg_2"
           style="fill:#f6f5f6;stroke:#3b4252;stroke-width:2;stroke-miterlimit:10" />
        <g
           id="svg_3"
           stroke="null">
          <polygon
             points="87.878403,64.330686 87.878403,138.81138 132.56682,138.81138 132.56682,64.330686 110.22261,49.434545 "
             id="svg_4"
             stroke="null"
             style="fill:#f6f5f6" />
          <polygon
             points="93.092049,138.06656 93.092049,68.129202 112.45703,55.244047 131.82201,68.129202 131.82201,138.06656 "
             id="svg_5"
             stroke="null"
             style="fill:#d5e5d1" />
          <g
             id="svg_6"
             stroke="null">
            <rect
               x="98.30571"
               y="69.544327"
               width="9.6824903"
               height="12.661717"
               id="svg_7"
               stroke="null"
               style="fill:#f6f5f6" />
            <rect
               x="114.69146"
               y="69.544327"
               width="9.6824903"
               height="12.661717"
               id="svg_8"
               stroke="null"
               style="fill:#f6f5f6" />
            <rect
               x="98.30571"
               y="85.930084"
               width="9.6824903"
               height="12.661717"
               id="svg_9"
               stroke="null"
               style="fill:#f6f5f6" />
            <rect
               x="114.69146"
               y="85.930084"
               width="9.6824903"
               height="12.661717"
               id="svg_10"
               stroke="null"
               style="fill:#f6f5f6" />
            <rect
               x="98.30571"
               y="102.31583"
               width="9.6824903"
               height="12.661717"
               id="svg_11"
               stroke="null"
               style="fill:#f6f5f6" />
            <rect
               x="114.69146"
               y="102.31583"
               width="9.6824903"
               height="12.661717"
               id="svg_12"
               stroke="null"
               style="fill:#f6f5f6" />
          </g>
          <g
             id="svg_13"
             stroke="null">
            <rect
               x="98.30571"
               y="69.544327"
               width="7.4480691"
               height="10.427296"
               id="svg_14"
               stroke="null"
               style="fill:#3b4252" />
            <rect
               x="114.69146"
               y="69.544327"
               width="7.4480691"
               height="10.427296"
               id="svg_15"
               stroke="null"
               style="fill:#3b4252" />
            <rect
               x="98.30571"
               y="85.930084"
               width="7.4480691"
               height="10.427296"
               id="svg_16"
               stroke="null"
               style="fill:#3b4252" />
            <rect
               x="114.69146"
               y="85.930084"
               width="7.4480691"
               height="10.427296"
               id="svg_17"
               stroke="null"
               style="fill:#3b4252" />
            <rect
               x="98.30571"
               y="102.31583"
               width="7.4480691"
               height="10.427296"
               id="svg_18"
               stroke="null"
               style="fill:#585f65" />
            <rect
               x="114.69146"
               y="102.31583"
               width="7.4480691"
               height="10.427296"
               id="svg_19"
               stroke="null"
               style="fill:#585f65" />
          </g>
          <polygon
             stroke-miterlimit="10"
             points="87.878403,64.330686 87.878403,138.81138 132.56682,138.81138 132.56682,64.330686 110.22261,49.434545 "
             id="svg_20"
             style="fill:none;stroke:#3b4252;stroke-width:2;stroke-miterlimit:10" />
        </g>
        <line
           stroke-miterlimit="10"
           x1="29.26211"
           y1="144.02502"
           x2="21.069235"
           y2="144.02502"
           id="svg_21"
           style="fill:none;stroke:#3b4252;stroke-width:2;stroke-miterlimit:10" />
        <path
           d="m 152.90005,171.58287 c -8.11839,0 -14.97062,-5.66053 -16.68367,-13.40652 H 92.123811 c -1.713056,7.74599 -8.565279,13.40652 -16.683674,13.40652 -8.118395,0 -14.970618,-5.66053 -16.683674,-13.40652 H 42.668634 c -3.724034,0 -6.703262,-2.97923 -6.703262,-6.70326 V 90.398922 c 0,-3.724034 2.979228,-6.703262 6.703262,-6.703262 h 84.907986 c 3.72403,0 6.70326,2.979228 6.70326,6.703262 v 14.151328 h 13.25756 c 2.68131,0 5.21365,1.34066 6.77775,3.57508 l 10.7997,15.86438 11.5445,5.8095 c 2.83027,1.41513 4.54333,4.17092 4.54333,7.2991 v 8.19288 c 1.78753,0.81929 2.97922,2.60682 2.97922,4.69228 v 2.97923 c 0,2.90475 -2.3089,5.21365 -5.21364,5.21365 h -9.38457 c -1.71306,7.67151 -8.56528,13.40652 -16.68368,13.40652 z"
           id="svg_22"
           stroke="null"
           inkscape:connector-curvature="0"
           style="fill:#f6f5f6" />
        <line
           stroke-miterlimit="10"
           x1="30.006918"
           y1="117.95678"
           x2="14.365973"
           y2="117.95678"
           id="svg_23"
           style="fill:none;stroke:#3b4252;stroke-width:2;stroke-miterlimit:10" />
        <line
           stroke-miterlimit="10"
           x1="22.558847"
           y1="124.66004"
           x2="0.95944899"
           y2="124.66004"
           id="svg_24"
           style="fill:none;stroke:#3b4252;stroke-width:2;stroke-miterlimit:10" />
        <path
           d="M 176.73387,88.164502 H 42.668635 c -1.638575,0 -2.979228,1.340652 -2.979228,2.979228 v 60.32936 c 0,1.63857 1.340652,2.97923 2.979228,2.97923 H 150.66563 v -5.95846 h 26.81305 v -11.39554 c 0,-1.71306 0.89377,-48.933816 -0.74481,-48.933816 z"
           id="svg_25"
           stroke="null"
           inkscape:connector-curvature="0"
           style="fill:#f6f5f6" />
        <path
           d="M 177.70212,91.888536 44.158248,91.516133 c -0.446884,0 -0.744807,0.297923 -0.744807,0.744807 v 60.70176 c 0,0.44688 0.297923,0.74481 0.744807,0.74481 H 149.92083 v -5.95846 h 26.81304 v -9.16112 c 0,-0.89377 1.34066,-46.699394 0.96825,-46.699394 z"
           id="svg_26"
           stroke="null"
           inkscape:connector-curvature="0"
           style="fill:#cce5f5" />
        <path
           stroke-miterlimit="10"
           d="M 130.55585,147.00425"
           id="svg_27"
           inkscape:connector-curvature="0"
           style="fill:none;stroke:#3b4252;stroke-width:2;stroke-miterlimit:10" />
        <path
           stroke-miterlimit="10"
           d="M 130.55585,115.72236"
           id="svg_28"
           inkscape:connector-curvature="0"
           style="fill:none;stroke:#3b4252;stroke-width:2;stroke-miterlimit:10" />
        <path
           stroke-miterlimit="10"
           d="m 177.47868,90.398923 c 0,-1.638575 -1.34065,-2.979228 -2.97923,-2.979228 H 42.668634 c -1.638575,0 -2.979228,1.340652 -2.979228,2.979228 v 61.074167 c 0,1.63857 1.340652,2.97923 2.979228,2.97923 H 150.66563 v -5.95846 h 26.81305 v -11.39554 c 0,-1.71306 0,-46.699396 0,-46.699397 z"
           id="svg_29"
           inkscape:connector-curvature="0"
           style="fill:none;stroke:#3b4252;stroke-width:4;stroke-miterlimit:10" />
        <path
           stroke-miterlimit="10"
           d="m 178.96829,148.49386 h -28.30266 v 5.95845 h 28.30266 c 0.81929,0 1.48962,-0.67032 1.48962,-1.48961 v -2.97923 c 0,-0.81929 -0.67033,-1.48961 -1.48962,-1.48961 z"
           id="svg_30"
           inkscape:connector-curvature="0"
           style="fill:#fcfae0;stroke:#3b4252;stroke-width:2;stroke-miterlimit:10" />
        <circle
           stroke-miterlimit="10"
           cx="152.90005"
           cy="154.45232"
           r="12.661717"
           id="svg_31"
           style="fill:#3b4252;stroke:#f6f5f6;stroke-width:4;stroke-miterlimit:10" />
        <circle
           cx="152.90005"
           cy="154.45232"
           r="3.7240341"
           id="svg_32"
           stroke="null"
           style="fill:#f6f5f6" />
        <g
           id="svg_33"
           stroke="null">
          <circle
             stroke-miterlimit="10"
             cx="75.44014"
             cy="154.45232"
             r="12.661717"
             id="svg_34"
             style="fill:#3b4252;stroke:#f6f5f6;stroke-width:4;stroke-miterlimit:10" />
          <circle
             cx="75.44014"
             cy="154.45232"
             r="3.7240341"
             id="svg_35"
             stroke="null"
             style="fill:#f6f5f6" />
        </g>
        <path
           d="m 79.908979,61.351454 h -4.468841 v -6.703262 c 0,-1.266172 0.968249,-2.234421 2.234421,-2.234421 v 0 c 1.266172,0 2.234421,0.968249 2.234421,2.234421 z"
           id="svg_36"
           stroke="null"
           inkscape:connector-curvature="0"
           style="fill:#3b4252" />
        <path
           stroke-miterlimit="10"
           d="m 75.663579,124.28764 c 0,1.19169 -0.968249,2.08546 -2.085459,2.08546 H 49.297416 c -1.191691,0 -2.085459,-0.96825 -2.085459,-2.08546 v -23.08902 c 0,-1.19169 0.968249,-2.085456 2.085459,-2.085456 H 73.57812 c 1.191691,0 2.085459,0.968246 2.085459,2.085456 z"
           id="svg_37"
           inkscape:connector-curvature="0"
           style="fill:#ffffff;stroke:#3b4252;stroke-width:2;stroke-miterlimit:10" />
        <path
           stroke-miterlimit="10"
           d="m 109.40333,124.28764 c 0,1.19169 -0.96825,2.08546 -2.08546,2.08546 H 83.037168 c -1.191691,0 -2.085459,-0.96825 -2.085459,-2.08546 v -23.08902 c 0,-1.19169 0.968249,-2.085456 2.085459,-2.085456 h 24.280702 c 1.19169,0 2.08546,0.968246 2.08546,2.085456 z"
           id="svg_38"
           inkscape:connector-curvature="0"
           style="fill:#ffffff;stroke:#3b4252;stroke-width:2;stroke-miterlimit:10" />
        <path
           stroke-miterlimit="10"
           d="m 137.92943,153.3351 h -22.49316 v -52.13648 c 0,-1.19169 0.96825,-2.085457 2.08546,-2.085457 h 18.32224 c 1.1917,0 2.08546,0.968247 2.08546,2.085457 z"
           id="svg_39"
           inkscape:connector-curvature="0"
           style="fill:#ffffff;stroke:#3b4252;stroke-width:2;stroke-miterlimit:10" />
        <path
           d="m 137.25911,152.21789 h -19.51394 v -49.15725 c 0,-1.19169 0.96825,-2.08546 2.08546,-2.08546 h 15.34302 c 1.19169,0 2.08546,0.96825 2.08546,2.08546 z"
           id="svg_40"
           stroke="null"
           inkscape:connector-curvature="0"
           style="fill:#dddfe1" />
        <path
           stroke-miterlimit="10"
           d="m 176.95732,133.82116 h -30.98397 c -1.19169,0 -2.08546,-0.96824 -2.08546,-2.08546 v -30.53708 c 0,-1.19169 0.96825,-2.085456 2.08546,-2.085456 h 30.98397 z"
           id="svg_41"
           inkscape:connector-curvature="0"
           style="fill:#ffffff;stroke:#3b4252;stroke-width:2;stroke-miterlimit:10" />
        <line
           stroke-miterlimit="10"
           x1="126.60837"
           y1="127.26686"
           x2="118.4155"
           y2="127.26686"
           id="svg_42"
           style="fill:#ffffff;stroke:#3b4252;stroke-width:2;stroke-miterlimit:10" />
        <line
           stroke-miterlimit="10"
           x1="40.732136"
           y1="135.45973"
           x2="115.51075"
           y2="135.45973"
           id="svg_43"
           style="fill:none;stroke:#3b4252;stroke-width:4;stroke-miterlimit:10" />
      </g>
    </g>
  </g>
</svg>
