<svg xmlns="http://www.w3.org/2000/svg" width="27.312" height="15.906" viewBox="0 0 27.312 15.906">
  <metadata><?xpacket begin="﻿" id="W5M0MpCehiHzreSzNTczkc9d"?>
<x:xmpmeta xmlns:x="adobe:ns:meta/" x:xmptk="Adobe XMP Core 5.6-c138 79.159824, 2016/09/14-01:09:01        ">
   <rdf:RDF xmlns:rdf="http://www.w3.org/1999/02/22-rdf-syntax-ns#">
      <rdf:Description rdf:about=""/>
   </rdf:RDF>
</x:xmpmeta>
                                                                                                    
                                                                                                    
                                                                                                    
                                                                                                    
                                                                                                    
                                                                                                    
                                                                                                    
                                                                                                    
                                                                                                    
                                                                                                    
                                                                                                    
                                                                                                    
                                                                                                    
                                                                                                    
                                                                                                    
                                                                                                    
                                                                                                    
                                                                                                    
                                                                                                    
                                                                                                    
                           
<?xpacket end="w"?></metadata>
<defs>
    <style>
      .cls-1 {
        fill: #fff;
        fill-rule: evenodd;
      }
    </style>
  </defs>
  <path id="Forma_1" data-name="Forma 1" class="cls-1" d="M380.187,622.235a2.019,2.019,0,0,0-.092-0.182,14.4,14.4,0,0,0-2.718-3.206l-0.029-.029-0.014-.014-0.014-.015h-0.014a16.521,16.521,0,0,1-1.153-1.189,1.135,1.135,0,0,1-.2-1.175,10.93,10.93,0,0,1,1.28-1.9q0.584-.769.925-1.233,2.463-3.337,2.135-4.265l-0.085-.145a0.832,0.832,0,0,0-.441-0.239,2.179,2.179,0,0,0-.911-0.036l-4.1.029a0.523,0.523,0,0,0-.285.007l-0.185.044-0.071.036-0.057.044a0.62,0.62,0,0,0-.156.152,1,1,0,0,0-.142.253,23.941,23.941,0,0,1-1.523,3.264q-0.526.9-.968,1.559a7.374,7.374,0,0,1-.739.972,5.35,5.35,0,0,1-.541.5,0.513,0.513,0,0,1-.37.159c-0.086-.019-0.166-0.039-0.242-0.058a0.949,0.949,0,0,1-.32-0.355,1.626,1.626,0,0,1-.164-0.566q-0.042-.34-0.05-0.587t0.007-.7q0.015-.45.015-0.609,0-.55.021-1.2t0.036-1.022c0.009-.252.014-0.517,0.014-0.8a3.426,3.426,0,0,0-.05-0.66,2.3,2.3,0,0,0-.149-0.464,0.785,0.785,0,0,0-.292-0.349,1.615,1.615,0,0,0-.477-0.195,9.307,9.307,0,0,0-1.921-.189,9.189,9.189,0,0,0-3.4.348,1.95,1.95,0,0,0-.541.436q-0.255.318-.071,0.348a1.737,1.737,0,0,1,1.21.623l0.085,0.174a2.786,2.786,0,0,1,.2.668,6.676,6.676,0,0,1,.128,1.058,11.35,11.35,0,0,1,0,1.813c-0.047.5-.092,0.895-0.135,1.176a2.4,2.4,0,0,1-.192.681,2.665,2.665,0,0,1-.171.319,0.244,0.244,0,0,1-.071.073,1.048,1.048,0,0,1-.384.073,0.9,0.9,0,0,1-.484-0.2,3.451,3.451,0,0,1-.59-0.559,7.5,7.5,0,0,1-.691-0.994q-0.384-.637-0.8-1.508l-0.228-.421q-0.213-.406-0.583-1.182t-0.655-1.5a0.961,0.961,0,0,0-.341-0.465l-0.072-.043a0.954,0.954,0,0,0-.227-0.124,1.583,1.583,0,0,0-.328-0.094l-3.9.029a0.98,0.98,0,0,0-.811.276l-0.057.087a0.481,0.481,0,0,0-.043.232,1.182,1.182,0,0,0,.086.392q0.854,2.045,1.857,3.945t1.743,3.06q0.74,1.161,1.508,2.191t1.018,1.32q0.249,0.289.391,0.435l0.356,0.348a8.538,8.538,0,0,0,1,.834,17.175,17.175,0,0,0,1.466.958,7.865,7.865,0,0,0,1.871.768,6.352,6.352,0,0,0,2.078.24h1.636a1.118,1.118,0,0,0,.754-0.32l0.057-.072a0.975,0.975,0,0,0,.107-0.268,1.514,1.514,0,0,0,.049-0.4,4.907,4.907,0,0,1,.093-1.124,3,3,0,0,1,.242-0.754,1.818,1.818,0,0,1,.306-0.428,1.253,1.253,0,0,1,.242-0.21,0.806,0.806,0,0,1,.114-0.051,0.888,0.888,0,0,1,.8.225,4.794,4.794,0,0,1,.868.841q0.405,0.5.974,1.124a6.7,6.7,0,0,0,1,.928l0.284,0.175a3.465,3.465,0,0,0,.74.319,1.567,1.567,0,0,0,.8.072l3.643-.057a1.62,1.62,0,0,0,.839-0.182,0.712,0.712,0,0,0,.356-0.4,1.142,1.142,0,0,0,.007-0.493A1.787,1.787,0,0,0,380.187,622.235Z" transform="translate(-353 -607.875)"/>
</svg>
