<svg id="Google_" data-name="Google +" xmlns="http://www.w3.org/2000/svg" width="19.843" height="18.281" viewBox="0 0 19.843 18.281">
  <metadata><?xpacket begin="﻿" id="W5M0MpCehiHzreSzNTczkc9d"?>
<x:xmpmeta xmlns:x="adobe:ns:meta/" x:xmptk="Adobe XMP Core 5.6-c138 79.159824, 2016/09/14-01:09:01        ">
   <rdf:RDF xmlns:rdf="http://www.w3.org/1999/02/22-rdf-syntax-ns#">
      <rdf:Description rdf:about=""/>
   </rdf:RDF>
</x:xmpmeta>
                                                                                                    
                                                                                                    
                                                                                                    
                                                                                                    
                                                                                                    
                                                                                                    
                                                                                                    
                                                                                                    
                                                                                                    
                                                                                                    
                                                                                                    
                                                                                                    
                                                                                                    
                                                                                                    
                                                                                                    
                                                                                                    
                                                                                                    
                                                                                                    
                                                                                                    
                                                                                                    
                           
<?xpacket end="w"?></metadata>
<defs>
    <style>
      .cls-1 {
        fill: #fff;
        fill-rule: evenodd;
      }
    </style>
  </defs>
  <path id="icon" class="cls-1" d="M660.072,609.616h-2.883l0-2.891h-0.984v2.906h-2.914v0.944h2.914v2.877l0.969,0.028,0-2.9h2.9v-0.959Zm-10.265,7.166c-0.523-.363-1.523-1.243-1.523-1.761,0-.606.177-0.9,1.111-1.618a3.779,3.779,0,0,0,1.634-2.957,3.357,3.357,0,0,0-1.865-3.269H651l0.758-.317s-3.8-.6-5.25-0.6c-2.594,0-5.036,1.922-5.036,4.15a4.141,4.141,0,0,0,4.408,4.112c0.183,0,.362,0,0.536-0.016a2.275,2.275,0,0,0-.293,1.058,2.175,2.175,0,0,0,.787,1.563c-0.332,0-.653.01-1,0.01-3.213,0-5.687,2-5.687,4.078,0,2.044,2.711,3.323,5.925,3.323,3.664,0,5.688-2.033,5.688-4.077a3.927,3.927,0,0,0-2.024-3.679h0Zm-3.092-2.836h0c-1.491-.044-2.907-1.632-3.165-3.547s0.742-3.381,2.233-3.337,2.907,1.58,3.165,3.5S648.205,613.989,646.715,613.946Zm-0.584,9.687h0c-2.22,0-3.825-1.375-3.825-3.027,0-1.619,1.99-2.967,4.211-2.944a4.948,4.948,0,0,1,1.44.226c1.206,0.82,2.071,1.284,2.315,2.219a2.527,2.527,0,0,1,.07.583C650.342,622.342,649.254,623.633,646.131,623.633Z" transform="translate(-640.219 -606.25)"/>
</svg>
