<svg id="LinkedIn" xmlns="http://www.w3.org/2000/svg" width="17.469" height="17.344" viewBox="0 0 17.469 17.344">
  <metadata><?xpacket begin="﻿" id="W5M0MpCehiHzreSzNTczkc9d"?>
<x:xmpmeta xmlns:x="adobe:ns:meta/" x:xmptk="Adobe XMP Core 5.6-c138 79.159824, 2016/09/14-01:09:01        ">
   <rdf:RDF xmlns:rdf="http://www.w3.org/1999/02/22-rdf-syntax-ns#">
      <rdf:Description rdf:about=""/>
   </rdf:RDF>
</x:xmpmeta>
                                                                                                    
                                                                                                    
                                                                                                    
                                                                                                    
                                                                                                    
                                                                                                    
                                                                                                    
                                                                                                    
                                                                                                    
                                                                                                    
                                                                                                    
                                                                                                    
                                                                                                    
                                                                                                    
                                                                                                    
                                                                                                    
                                                                                                    
                                                                                                    
                                                                                                    
                                                                                                    
                           
<?xpacket end="w"?></metadata>
<defs>
    <style>
      .cls-1 {
        fill: #fff;
        fill-rule: evenodd;
      }
    </style>
  </defs>
  <path id="icon" class="cls-1" d="M792.791,622.614V616c0-1.57-.72-2.641-2.106-2.641a2.221,2.221,0,0,0-2.049,1.419,2.628,2.628,0,0,0-.035.9v6.931h-3.492V614.3a8.759,8.759,0,0,0-.7-3.465H787.9v1.386l0.174,0.019a4.277,4.277,0,0,1,3.8-1.955c2.515,0,4.4,1.683,4.4,5.271v7.061h-3.492Zm-13.967-11.782h4.19v11.782h-4.19V610.832Zm2.028-1.759a1.9,1.9,0,1,1,2.065-1.894A1.9,1.9,0,0,1,780.852,609.073Z" transform="translate(-778.812 -605.281)"/>
</svg>
