<svg id="Twitter" xmlns="http://www.w3.org/2000/svg" width="20.156" height="16.188" viewBox="0 0 20.156 16.188">
  <metadata><?xpacket begin="﻿" id="W5M0MpCehiHzreSzNTczkc9d"?>
<x:xmpmeta xmlns:x="adobe:ns:meta/" x:xmptk="Adobe XMP Core 5.6-c138 79.159824, 2016/09/14-01:09:01        ">
   <rdf:RDF xmlns:rdf="http://www.w3.org/1999/02/22-rdf-syntax-ns#">
      <rdf:Description rdf:about=""/>
   </rdf:RDF>
</x:xmpmeta>
                                                                                                    
                                                                                                    
                                                                                                    
                                                                                                    
                                                                                                    
                                                                                                    
                                                                                                    
                                                                                                    
                                                                                                    
                                                                                                    
                                                                                                    
                                                                                                    
                                                                                                    
                                                                                                    
                                                                                                    
                                                                                                    
                                                                                                    
                                                                                                    
                                                                                                    
                                                                                                    
                           
<?xpacket end="w"?></metadata>
<defs>
    <style>
      .cls-1 {
        fill: #fff;
        fill-rule: evenodd;
      }
    </style>
  </defs>
  <path id="icon" class="cls-1" d="M452.278,609.946a8.348,8.348,0,0,1-2.376.643,4.1,4.1,0,0,0,1.819-2.26,8.345,8.345,0,0,1-2.627.991,4.155,4.155,0,0,0-3.02-1.29,4.088,4.088,0,0,0-4.03,5.017,11.79,11.79,0,0,1-8.526-4.269,4.027,4.027,0,0,0-.56,2.054,4.073,4.073,0,0,0,1.84,3.4,4.152,4.152,0,0,1-1.873-.511v0.051a4.1,4.1,0,0,0,3.318,4.008,4.2,4.2,0,0,1-1.09.143,4.154,4.154,0,0,1-.778-0.074,4.136,4.136,0,0,0,3.864,2.838,8.365,8.365,0,0,1-5.138,1.749,8.466,8.466,0,0,1-.987-0.057,11.816,11.816,0,0,0,6.342,1.836,11.614,11.614,0,0,0,11.77-11.626c0-.178,0-0.353-0.012-0.529a8.327,8.327,0,0,0,2.064-2.114h0Z" transform="translate(-432.125 -608.031)"/>
</svg>
