<svg id="YouTube" xmlns="http://www.w3.org/2000/svg" width="18.843" height="21.906" viewBox="0 0 18.843 21.906">
  <metadata><?xpacket begin="﻿" id="W5M0MpCehiHzreSzNTczkc9d"?>
<x:xmpmeta xmlns:x="adobe:ns:meta/" x:xmptk="Adobe XMP Core 5.6-c138 79.159824, 2016/09/14-01:09:01        ">
   <rdf:RDF xmlns:rdf="http://www.w3.org/1999/02/22-rdf-syntax-ns#">
      <rdf:Description rdf:about=""/>
   </rdf:RDF>
</x:xmpmeta>
                                                                                                    
                                                                                                    
                                                                                                    
                                                                                                    
                                                                                                    
                                                                                                    
                                                                                                    
                                                                                                    
                                                                                                    
                                                                                                    
                                                                                                    
                                                                                                    
                                                                                                    
                                                                                                    
                                                                                                    
                                                                                                    
                                                                                                    
                                                                                                    
                                                                                                    
                                                                                                    
                           
<?xpacket end="w"?></metadata>
<defs>
    <style>
      .cls-1 {
        fill: #fff;
        fill-rule: evenodd;
      }
    </style>
  </defs>
  <path id="icon" class="cls-1" d="M520.15,622.715a2.7,2.7,0,0,1-2.72,2.667q-3.216.132-6.575,0.123-3.356.006-6.575-.123a2.7,2.7,0,0,1-2.72-2.667q-0.135-1.75-.126-3.5t0.126-3.5a2.7,2.7,0,0,1,2.72-2.667q3.216-.134,6.575-0.123,3.355-.008,6.575.123a2.7,2.7,0,0,1,2.72,2.667q0.135,1.747.126,3.5Q520.282,620.966,520.15,622.715Zm-13.3-7.837h-3.952v1.2h1.332v7.064h1.288v-7.064h1.332v-1.2Zm3.248,2.168h-1.144v4.628a1.6,1.6,0,0,1-.353.328,0.63,0.63,0,0,1-.319.128,0.271,0.271,0,0,1-.233-0.1,0.541,0.541,0,0,1-.071-0.314v-4.673h-1.144v5.095a1.365,1.365,0,0,0,.2.817,0.693,0.693,0,0,0,.6.273,1.347,1.347,0,0,0,.663-0.2,2.533,2.533,0,0,0,.658-0.567v0.673h1.144v-6.1Zm4.4,1.451a1.9,1.9,0,0,0-.287-1.137,0.958,0.958,0,0,0-.828-0.39,1.055,1.055,0,0,0-.525.145,1.734,1.734,0,0,0-.491.423v-2.66h-1.154v8.264h1.154v-0.469a1.524,1.524,0,0,0,.488.413,1.316,1.316,0,0,0,.6.134,0.926,0.926,0,0,0,.777-0.345,1.6,1.6,0,0,0,.268-1V618.5Zm4.226,2.466h-1.177v0.424a1.353,1.353,0,0,1-.114.7,0.458,0.458,0,0,1-.4.158,0.416,0.416,0,0,1-.386-0.187,1.382,1.382,0,0,1-.113-0.667v-1.15h2.187v-1.552a1.908,1.908,0,0,0-.422-1.33,1.546,1.546,0,0,0-1.205-.463,1.665,1.665,0,0,0-1.252.5,1.781,1.781,0,0,0-.484,1.293v2.737a2.024,2.024,0,0,0,.441,1.382,1.519,1.519,0,0,0,1.208.5,1.651,1.651,0,0,0,1.284-.473,2.045,2.045,0,0,0,.43-1.412v-0.459Zm-2.187-2.289a0.961,0.961,0,0,1,.119-0.549,0.45,0.45,0,0,1,.391-0.165,0.438,0.438,0,0,1,.381.165,0.969,0.969,0,0,1,.119.549v0.617h-1.01v-0.617Zm-3.623,3.588a0.588,0.588,0,0,1-.276-0.066,0.974,0.974,0,0,1-.271-0.214v-3.8A0.83,0.83,0,0,1,512.6,618a0.531,0.531,0,0,1,.242-0.06,0.416,0.416,0,0,1,.354.16,0.762,0.762,0,0,1,.122.47v3.146a0.7,0.7,0,0,1-.1.421A0.361,0.361,0,0,1,512.909,622.262Zm2.659-11.093a2.477,2.477,0,0,1-.657.567,1.336,1.336,0,0,1-.664.194,0.7,0.7,0,0,1-.6-0.272,1.371,1.371,0,0,1-.2-0.817v-5.1h1.143v4.673a0.535,0.535,0,0,0,.072.314,0.27,0.27,0,0,0,.232.1,0.615,0.615,0,0,0,.318-0.129,1.514,1.514,0,0,0,.354-0.328v-4.627h1.143v6.1h-1.143v-0.673ZM510.81,612a1.6,1.6,0,0,1-1.2-.46,1.693,1.693,0,0,1-.451-1.236V607.14a1.452,1.452,0,0,1,.462-1.128,1.775,1.775,0,0,1,1.241-.42,1.6,1.6,0,0,1,1.164.443,1.53,1.53,0,0,1,.452,1.139v3.148A1.54,1.54,0,0,1,510.81,612Zm0.5-4.9a0.409,0.409,0,0,0-.14-0.322,0.53,0.53,0,0,0-.365-0.123,0.474,0.474,0,0,0-.341.123,0.418,0.418,0,0,0-.131.322v3.32a0.562,0.562,0,0,0,.122.389,0.441,0.441,0,0,0,.35.136,0.488,0.488,0,0,0,.368-0.139,0.525,0.525,0,0,0,.137-0.386v-3.32Zm-3.593,4.748h-1.288v-3.274l-1.532-4.989h1.3l0.836,3.3h0.081l0.8-3.3h1.308l-1.5,4.834v3.429Z" transform="translate(-501.438 -603.594)"/>
</svg>
